<?xml version="1.0" encoding="UTF-8"?>
<svg xmlns="http://www.w3.org/2000/svg" width="898" height="202" viewBox="0 0 898 202">
  <rect width="898" height="202" fill="#ffffff" rx="6" />
  <text x="40" y="16" font-family="Arial, sans-serif" font-size="14" fill="#24292f" font-weight="bold">Daily Cost</text>
  <text x="32" y="41" font-family="Arial, sans-serif" font-size="10" fill="#57606a" text-anchor="end">Mon</text>
  <text x="32" y="73" font-family="Arial, sans-serif" font-size="10" fill="#57606a" text-anchor="end">Wed</text>
  <text x="32" y="105" font-family="Arial, sans-serif" font-size="10" fill="#57606a" text-anchor="end">Fri</text>
  <text x="32" y="137" font-family="Arial, sans-serif" font-size="10" fill="#57606a" text-anchor="end">Sun</text>
  <text x="56" y="24" font-family="Arial, sans-serif" font-size="10" fill="#57606a">Apr</text>
  <text x="120" y="24" font-family="Arial, sans-serif" font-size="10" fill="#57606a">May</text>
  <text x="184" y="24" font-family="Arial, sans-serif" font-size="10" fill="#57606a">Jun</text>
  <text x="264" y="24" font-family="Arial, sans-serif" font-size="10" fill="#57606a">Jul</text>
  <text x="328" y="24" font-family="Arial, sans-serif" font-size="10" fill="#57606a">Aug</text>
  <text x="408" y="24" font-family="Arial, sans-serif" font-size="10" fill="#57606a">Sep</text>
  <text x="472" y="24" font-family="Arial, sans-serif" font-size="10" fill="#57606a">Oct</text>
  <text x="536" y="24" font-family="Arial, sans-serif" font-size="10" fill="#57606a">Nov</text>
  <text x="616" y="24" font-family="Arial, sans-serif" font-size="10" fill="#57606a">Dec</text>
  <text x="680" y="24" font-family="Arial, sans-serif" font-size="10" fill="#57606a">Jan</text>
  <text x="744" y="24" font-family="Arial, sans-serif" font-size="10" fill="#57606a">Feb</text>
  <text x="808" y="24" font-family="Arial, sans-serif" font-size="10" fill="#57606a">Mar</text>
  <rect x="40" y="30" width="13" height="13" rx="2" ry="2" fill="#ebedf0" />
  <rect x="40" y="46" width="13" height="13" rx="2" ry="2" fill="#ebedf0" />
  <rect x="40" y="62" width="13" height="13" rx="2" ry="2" fill="#ebedf0" />
  <rect x="40" y="78" width="13" height="13" rx="2" ry="2" fill="#ebedf0">
    <title>$0.00 on 2025-03-27</title>
  </rect>
  <rect x="40" y="94" width="13" height="13" rx="2" ry="2" fill="#ebedf0">
    <title>$0.00 on 2025-03-28</title>
  </rect>
  <rect x="40" y="110" width="13" height="13" rx="2" ry="2" fill="#ebedf0">
    <title>$0.00 on 2025-03-29</title>
  </rect>
  <rect x="40" y="126" width="13" height="13" rx="2" ry="2" fill="#ebedf0">
    <title>$0.00 on 2025-03-30</title>
  </rect>
  <rect x="56" y="30" width="13" height="13" rx="2" ry="2" fill="#ebedf0">
    <title>$0.00 on 2025-03-31</title>
  </rect>
  <rect x="56" y="46" width="13" height="13" rx="2" ry="2" fill="#ebedf0">
    <title>$0.00 on 2025-04-01</title>
  </rect>
  <rect x="56" y="62" width="13" height="13" rx="2" ry="2" fill="#ebedf0">
    <title>$0.00 on 2025-04-02</title>
  </rect>
  <rect x="56" y="78" width="13" height="13" rx="2" ry="2" fill="#ebedf0">
    <title>$0.00 on 2025-04-03</title>
  </rect>
  <rect x="56" y="94" width="13" height="13" rx="2" ry="2" fill="#ebedf0">
    <title>$0.00 on 2025-04-04</title>
  </rect>
  <rect x="56" y="110" width="13" height="13" rx="2" ry="2" fill="#ebedf0">
    <title>$0.00 on 2025-04-05</title>
  </rect>
  <rect x="56" y="126" width="13" height="13" rx="2" ry="2" fill="#ebedf0">
    <title>$0.00 on 2025-04-06</title>
  </rect>
  <rect x="72" y="30" width="13" height="13" rx="2" ry="2" fill="#ebedf0">
    <title>$0.00 on 2025-04-07</title>
  </rect>
  <rect x="72" y="46" width="13" height="13" rx="2" ry="2" fill="#ebedf0">
    <title>$0.00 on 2025-04-08</title>
  </rect>
  <rect x="72" y="62" width="13" height="13" rx="2" ry="2" fill="#ebedf0">
    <title>$0.00 on 2025-04-09</title>
  </rect>
  <rect x="72" y="78" width="13" height="13" rx="2" ry="2" fill="#ebedf0">
    <title>$0.00 on 2025-04-10</title>
  </rect>
  <rect x="72" y="94" width="13" height="13" rx="2" ry="2" fill="#ebedf0">
    <title>$0.00 on 2025-04-11</title>
  </rect>
  <rect x="72" y="110" width="13" height="13" rx="2" ry="2" fill="#ebedf0">
    <title>$0.00 on 2025-04-12</title>
  </rect>
  <rect x="72" y="126" width="13" height="13" rx="2" ry="2" fill="#ebedf0">
    <title>$0.00 on 2025-04-13</title>
  </rect>
  <rect x="88" y="30" width="13" height="13" rx="2" ry="2" fill="#ebedf0">
    <title>$0.00 on 2025-04-14</title>
  </rect>
  <rect x="88" y="46" width="13" height="13" rx="2" ry="2" fill="#ebedf0">
    <title>$0.00 on 2025-04-15</title>
  </rect>
  <rect x="88" y="62" width="13" height="13" rx="2" ry="2" fill="#ebedf0">
    <title>$0.00 on 2025-04-16</title>
  </rect>
  <rect x="88" y="78" width="13" height="13" rx="2" ry="2" fill="#ebedf0">
    <title>$0.00 on 2025-04-17</title>
  </rect>
  <rect x="88" y="94" width="13" height="13" rx="2" ry="2" fill="#ebedf0">
    <title>$0.00 on 2025-04-18</title>
  </rect>
  <rect x="88" y="110" width="13" height="13" rx="2" ry="2" fill="#ebedf0">
    <title>$0.00 on 2025-04-19</title>
  </rect>
  <rect x="88" y="126" width="13" height="13" rx="2" ry="2" fill="#ebedf0">
    <title>$0.00 on 2025-04-20</title>
  </rect>
  <rect x="104" y="30" width="13" height="13" rx="2" ry="2" fill="#ebedf0">
    <title>$0.00 on 2025-04-21</title>
  </rect>
  <rect x="104" y="46" width="13" height="13" rx="2" ry="2" fill="#ebedf0">
    <title>$0.00 on 2025-04-22</title>
  </rect>
  <rect x="104" y="62" width="13" height="13" rx="2" ry="2" fill="#ebedf0">
    <title>$0.00 on 2025-04-23</title>
  </rect>
  <rect x="104" y="78" width="13" height="13" rx="2" ry="2" fill="#ebedf0">
    <title>$0.00 on 2025-04-24</title>
  </rect>
  <rect x="104" y="94" width="13" height="13" rx="2" ry="2" fill="#ebedf0">
    <title>$0.00 on 2025-04-25</title>
  </rect>
  <rect x="104" y="110" width="13" height="13" rx="2" ry="2" fill="#ebedf0">
    <title>$0.00 on 2025-04-26</title>
  </rect>
  <rect x="104" y="126" width="13" height="13" rx="2" ry="2" fill="#ebedf0">
    <title>$0.00 on 2025-04-27</title>
  </rect>
  <rect x="120" y="30" width="13" height="13" rx="2" ry="2" fill="#ebedf0">
    <title>$0.00 on 2025-04-28</title>
  </rect>
  <rect x="120" y="46" width="13" height="13" rx="2" ry="2" fill="#ebedf0">
    <title>$0.00 on 2025-04-29</title>
  </rect>
  <rect x="120" y="62" width="13" height="13" rx="2" ry="2" fill="#ebedf0">
    <title>$0.00 on 2025-04-30</title>
  </rect>
  <rect x="120" y="78" width="13" height="13" rx="2" ry="2" fill="#ebedf0">
    <title>$0.00 on 2025-05-01</title>
  </rect>
  <rect x="120" y="94" width="13" height="13" rx="2" ry="2" fill="#ebedf0">
    <title>$0.00 on 2025-05-02</title>
  </rect>
  <rect x="120" y="110" width="13" height="13" rx="2" ry="2" fill="#ebedf0">
    <title>$0.00 on 2025-05-03</title>
  </rect>
  <rect x="120" y="126" width="13" height="13" rx="2" ry="2" fill="#ebedf0">
    <title>$0.00 on 2025-05-04</title>
  </rect>
  <rect x="136" y="30" width="13" height="13" rx="2" ry="2" fill="#ebedf0">
    <title>$0.00 on 2025-05-05</title>
  </rect>
  <rect x="136" y="46" width="13" height="13" rx="2" ry="2" fill="#ebedf0">
    <title>$0.00 on 2025-05-06</title>
  </rect>
  <rect x="136" y="62" width="13" height="13" rx="2" ry="2" fill="#ebedf0">
    <title>$0.00 on 2025-05-07</title>
  </rect>
  <rect x="136" y="78" width="13" height="13" rx="2" ry="2" fill="#ebedf0">
    <title>$0.00 on 2025-05-08</title>
  </rect>
  <rect x="136" y="94" width="13" height="13" rx="2" ry="2" fill="#ebedf0">
    <title>$0.00 on 2025-05-09</title>
  </rect>
  <rect x="136" y="110" width="13" height="13" rx="2" ry="2" fill="#ebedf0">
    <title>$0.00 on 2025-05-10</title>
  </rect>
  <rect x="136" y="126" width="13" height="13" rx="2" ry="2" fill="#ebedf0">
    <title>$0.00 on 2025-05-11</title>
  </rect>
  <rect x="152" y="30" width="13" height="13" rx="2" ry="2" fill="#ebedf0">
    <title>$0.00 on 2025-05-12</title>
  </rect>
  <rect x="152" y="46" width="13" height="13" rx="2" ry="2" fill="#ebedf0">
    <title>$0.00 on 2025-05-13</title>
  </rect>
  <rect x="152" y="62" width="13" height="13" rx="2" ry="2" fill="#ebedf0">
    <title>$0.00 on 2025-05-14</title>
  </rect>
  <rect x="152" y="78" width="13" height="13" rx="2" ry="2" fill="#ebedf0">
    <title>$0.00 on 2025-05-15</title>
  </rect>
  <rect x="152" y="94" width="13" height="13" rx="2" ry="2" fill="#ebedf0">
    <title>$0.00 on 2025-05-16</title>
  </rect>
  <rect x="152" y="110" width="13" height="13" rx="2" ry="2" fill="#ebedf0">
    <title>$0.00 on 2025-05-17</title>
  </rect>
  <rect x="152" y="126" width="13" height="13" rx="2" ry="2" fill="#ebedf0">
    <title>$0.00 on 2025-05-18</title>
  </rect>
  <rect x="168" y="30" width="13" height="13" rx="2" ry="2" fill="#ebedf0">
    <title>$0.00 on 2025-05-19</title>
  </rect>
  <rect x="168" y="46" width="13" height="13" rx="2" ry="2" fill="#ebedf0">
    <title>$0.00 on 2025-05-20</title>
  </rect>
  <rect x="168" y="62" width="13" height="13" rx="2" ry="2" fill="#ebedf0">
    <title>$0.00 on 2025-05-21</title>
  </rect>
  <rect x="168" y="78" width="13" height="13" rx="2" ry="2" fill="#ebedf0">
    <title>$0.00 on 2025-05-22</title>
  </rect>
  <rect x="168" y="94" width="13" height="13" rx="2" ry="2" fill="#ebedf0">
    <title>$0.00 on 2025-05-23</title>
  </rect>
  <rect x="168" y="110" width="13" height="13" rx="2" ry="2" fill="#ebedf0">
    <title>$0.00 on 2025-05-24</title>
  </rect>
  <rect x="168" y="126" width="13" height="13" rx="2" ry="2" fill="#ebedf0">
    <title>$0.00 on 2025-05-25</title>
  </rect>
  <rect x="184" y="30" width="13" height="13" rx="2" ry="2" fill="#ebedf0">
    <title>$0.00 on 2025-05-26</title>
  </rect>
  <rect x="184" y="46" width="13" height="13" rx="2" ry="2" fill="#ebedf0">
    <title>$0.00 on 2025-05-27</title>
  </rect>
  <rect x="184" y="62" width="13" height="13" rx="2" ry="2" fill="#ebedf0">
    <title>$0.00 on 2025-05-28</title>
  </rect>
  <rect x="184" y="78" width="13" height="13" rx="2" ry="2" fill="#ebedf0">
    <title>$0.00 on 2025-05-29</title>
  </rect>
  <rect x="184" y="94" width="13" height="13" rx="2" ry="2" fill="#ebedf0">
    <title>$0.00 on 2025-05-30</title>
  </rect>
  <rect x="184" y="110" width="13" height="13" rx="2" ry="2" fill="#ebedf0">
    <title>$0.00 on 2025-05-31</title>
  </rect>
  <rect x="184" y="126" width="13" height="13" rx="2" ry="2" fill="#ebedf0">
    <title>$0.00 on 2025-06-01</title>
  </rect>
  <rect x="200" y="30" width="13" height="13" rx="2" ry="2" fill="#ebedf0">
    <title>$0.00 on 2025-06-02</title>
  </rect>
  <rect x="200" y="46" width="13" height="13" rx="2" ry="2" fill="#ebedf0">
    <title>$0.00 on 2025-06-03</title>
  </rect>
  <rect x="200" y="62" width="13" height="13" rx="2" ry="2" fill="#ebedf0">
    <title>$0.00 on 2025-06-04</title>
  </rect>
  <rect x="200" y="78" width="13" height="13" rx="2" ry="2" fill="#ebedf0">
    <title>$0.00 on 2025-06-05</title>
  </rect>
  <rect x="200" y="94" width="13" height="13" rx="2" ry="2" fill="#ebedf0">
    <title>$0.00 on 2025-06-06</title>
  </rect>
  <rect x="200" y="110" width="13" height="13" rx="2" ry="2" fill="#ebedf0">
    <title>$0.00 on 2025-06-07</title>
  </rect>
  <rect x="200" y="126" width="13" height="13" rx="2" ry="2" fill="#ebedf0">
    <title>$0.00 on 2025-06-08</title>
  </rect>
  <rect x="216" y="30" width="13" height="13" rx="2" ry="2" fill="#ebedf0">
    <title>$0.00 on 2025-06-09</title>
  </rect>
  <rect x="216" y="46" width="13" height="13" rx="2" ry="2" fill="#ebedf0">
    <title>$0.00 on 2025-06-10</title>
  </rect>
  <rect x="216" y="62" width="13" height="13" rx="2" ry="2" fill="#ebedf0">
    <title>$0.00 on 2025-06-11</title>
  </rect>
  <rect x="216" y="78" width="13" height="13" rx="2" ry="2" fill="#ebedf0">
    <title>$0.00 on 2025-06-12</title>
  </rect>
  <rect x="216" y="94" width="13" height="13" rx="2" ry="2" fill="#ebedf0">
    <title>$0.00 on 2025-06-13</title>
  </rect>
  <rect x="216" y="110" width="13" height="13" rx="2" ry="2" fill="#ebedf0">
    <title>$0.00 on 2025-06-14</title>
  </rect>
  <rect x="216" y="126" width="13" height="13" rx="2" ry="2" fill="#ebedf0">
    <title>$0.00 on 2025-06-15</title>
  </rect>
  <rect x="232" y="30" width="13" height="13" rx="2" ry="2" fill="#ebedf0">
    <title>$0.00 on 2025-06-16</title>
  </rect>
  <rect x="232" y="46" width="13" height="13" rx="2" ry="2" fill="#ebedf0">
    <title>$0.00 on 2025-06-17</title>
  </rect>
  <rect x="232" y="62" width="13" height="13" rx="2" ry="2" fill="#ebedf0">
    <title>$0.00 on 2025-06-18</title>
  </rect>
  <rect x="232" y="78" width="13" height="13" rx="2" ry="2" fill="#ebedf0">
    <title>$0.00 on 2025-06-19</title>
  </rect>
  <rect x="232" y="94" width="13" height="13" rx="2" ry="2" fill="#ebedf0">
    <title>$0.00 on 2025-06-20</title>
  </rect>
  <rect x="232" y="110" width="13" height="13" rx="2" ry="2" fill="#ebedf0">
    <title>$0.00 on 2025-06-21</title>
  </rect>
  <rect x="232" y="126" width="13" height="13" rx="2" ry="2" fill="#ebedf0">
    <title>$0.00 on 2025-06-22</title>
  </rect>
  <rect x="248" y="30" width="13" height="13" rx="2" ry="2" fill="#ebedf0">
    <title>$0.00 on 2025-06-23</title>
  </rect>
  <rect x="248" y="46" width="13" height="13" rx="2" ry="2" fill="#ebedf0">
    <title>$0.00 on 2025-06-24</title>
  </rect>
  <rect x="248" y="62" width="13" height="13" rx="2" ry="2" fill="#ebedf0">
    <title>$0.00 on 2025-06-25</title>
  </rect>
  <rect x="248" y="78" width="13" height="13" rx="2" ry="2" fill="#ebedf0">
    <title>$0.00 on 2025-06-26</title>
  </rect>
  <rect x="248" y="94" width="13" height="13" rx="2" ry="2" fill="#ebedf0">
    <title>$0.00 on 2025-06-27</title>
  </rect>
  <rect x="248" y="110" width="13" height="13" rx="2" ry="2" fill="#ebedf0">
    <title>$0.00 on 2025-06-28</title>
  </rect>
  <rect x="248" y="126" width="13" height="13" rx="2" ry="2" fill="#ebedf0">
    <title>$0.00 on 2025-06-29</title>
  </rect>
  <rect x="264" y="30" width="13" height="13" rx="2" ry="2" fill="#ebedf0">
    <title>$0.00 on 2025-06-30</title>
  </rect>
  <rect x="264" y="46" width="13" height="13" rx="2" ry="2" fill="#ebedf0">
    <title>$0.00 on 2025-07-01</title>
  </rect>
  <rect x="264" y="62" width="13" height="13" rx="2" ry="2" fill="#ebedf0">
    <title>$0.00 on 2025-07-02</title>
  </rect>
  <rect x="264" y="78" width="13" height="13" rx="2" ry="2" fill="#ebedf0">
    <title>$0.00 on 2025-07-03</title>
  </rect>
  <rect x="264" y="94" width="13" height="13" rx="2" ry="2" fill="#ebedf0">
    <title>$0.00 on 2025-07-04</title>
  </rect>
  <rect x="264" y="110" width="13" height="13" rx="2" ry="2" fill="#ebedf0">
    <title>$0.00 on 2025-07-05</title>
  </rect>
  <rect x="264" y="126" width="13" height="13" rx="2" ry="2" fill="#ebedf0">
    <title>$0.00 on 2025-07-06</title>
  </rect>
  <rect x="280" y="30" width="13" height="13" rx="2" ry="2" fill="#ebedf0">
    <title>$0.00 on 2025-07-07</title>
  </rect>
  <rect x="280" y="46" width="13" height="13" rx="2" ry="2" fill="#ebedf0">
    <title>$0.00 on 2025-07-08</title>
  </rect>
  <rect x="280" y="62" width="13" height="13" rx="2" ry="2" fill="#ebedf0">
    <title>$0.00 on 2025-07-09</title>
  </rect>
  <rect x="280" y="78" width="13" height="13" rx="2" ry="2" fill="#ebedf0">
    <title>$0.00 on 2025-07-10</title>
  </rect>
  <rect x="280" y="94" width="13" height="13" rx="2" ry="2" fill="#ebedf0">
    <title>$0.00 on 2025-07-11</title>
  </rect>
  <rect x="280" y="110" width="13" height="13" rx="2" ry="2" fill="#ebedf0">
    <title>$0.00 on 2025-07-12</title>
  </rect>
  <rect x="280" y="126" width="13" height="13" rx="2" ry="2" fill="#ebedf0">
    <title>$0.00 on 2025-07-13</title>
  </rect>
  <rect x="296" y="30" width="13" height="13" rx="2" ry="2" fill="#ebedf0">
    <title>$0.00 on 2025-07-14</title>
  </rect>
  <rect x="296" y="46" width="13" height="13" rx="2" ry="2" fill="#ebedf0">
    <title>$0.00 on 2025-07-15</title>
  </rect>
  <rect x="296" y="62" width="13" height="13" rx="2" ry="2" fill="#ebedf0">
    <title>$0.00 on 2025-07-16</title>
  </rect>
  <rect x="296" y="78" width="13" height="13" rx="2" ry="2" fill="#ebedf0">
    <title>$0.00 on 2025-07-17</title>
  </rect>
  <rect x="296" y="94" width="13" height="13" rx="2" ry="2" fill="#ebedf0">
    <title>$0.00 on 2025-07-18</title>
  </rect>
  <rect x="296" y="110" width="13" height="13" rx="2" ry="2" fill="#ebedf0">
    <title>$0.00 on 2025-07-19</title>
  </rect>
  <rect x="296" y="126" width="13" height="13" rx="2" ry="2" fill="#ebedf0">
    <title>$0.00 on 2025-07-20</title>
  </rect>
  <rect x="312" y="30" width="13" height="13" rx="2" ry="2" fill="#ebedf0">
    <title>$0.00 on 2025-07-21</title>
  </rect>
  <rect x="312" y="46" width="13" height="13" rx="2" ry="2" fill="#ebedf0">
    <title>$0.00 on 2025-07-22</title>
  </rect>
  <rect x="312" y="62" width="13" height="13" rx="2" ry="2" fill="#ebedf0">
    <title>$0.00 on 2025-07-23</title>
  </rect>
  <rect x="312" y="78" width="13" height="13" rx="2" ry="2" fill="#ebedf0">
    <title>$0.00 on 2025-07-24</title>
  </rect>
  <rect x="312" y="94" width="13" height="13" rx="2" ry="2" fill="#ebedf0">
    <title>$0.00 on 2025-07-25</title>
  </rect>
  <rect x="312" y="110" width="13" height="13" rx="2" ry="2" fill="#ebedf0">
    <title>$0.00 on 2025-07-26</title>
  </rect>
  <rect x="312" y="126" width="13" height="13" rx="2" ry="2" fill="#ebedf0">
    <title>$0.00 on 2025-07-27</title>
  </rect>
  <rect x="328" y="30" width="13" height="13" rx="2" ry="2" fill="#ebedf0">
    <title>$0.00 on 2025-07-28</title>
  </rect>
  <rect x="328" y="46" width="13" height="13" rx="2" ry="2" fill="#ebedf0">
    <title>$0.00 on 2025-07-29</title>
  </rect>
  <rect x="328" y="62" width="13" height="13" rx="2" ry="2" fill="#ebedf0">
    <title>$0.00 on 2025-07-30</title>
  </rect>
  <rect x="328" y="78" width="13" height="13" rx="2" ry="2" fill="#ebedf0">
    <title>$0.00 on 2025-07-31</title>
  </rect>
  <rect x="328" y="94" width="13" height="13" rx="2" ry="2" fill="#ebedf0">
    <title>$0.00 on 2025-08-01</title>
  </rect>
  <rect x="328" y="110" width="13" height="13" rx="2" ry="2" fill="#ebedf0">
    <title>$0.00 on 2025-08-02</title>
  </rect>
  <rect x="328" y="126" width="13" height="13" rx="2" ry="2" fill="#ebedf0">
    <title>$0.00 on 2025-08-03</title>
  </rect>
  <rect x="344" y="30" width="13" height="13" rx="2" ry="2" fill="#ebedf0">
    <title>$0.00 on 2025-08-04</title>
  </rect>
  <rect x="344" y="46" width="13" height="13" rx="2" ry="2" fill="#ebedf0">
    <title>$0.00 on 2025-08-05</title>
  </rect>
  <rect x="344" y="62" width="13" height="13" rx="2" ry="2" fill="#ebedf0">
    <title>$0.00 on 2025-08-06</title>
  </rect>
  <rect x="344" y="78" width="13" height="13" rx="2" ry="2" fill="#ebedf0">
    <title>$0.00 on 2025-08-07</title>
  </rect>
  <rect x="344" y="94" width="13" height="13" rx="2" ry="2" fill="#ebedf0">
    <title>$0.00 on 2025-08-08</title>
  </rect>
  <rect x="344" y="110" width="13" height="13" rx="2" ry="2" fill="#ebedf0">
    <title>$0.00 on 2025-08-09</title>
  </rect>
  <rect x="344" y="126" width="13" height="13" rx="2" ry="2" fill="#ebedf0">
    <title>$0.00 on 2025-08-10</title>
  </rect>
  <rect x="360" y="30" width="13" height="13" rx="2" ry="2" fill="#ebedf0">
    <title>$0.00 on 2025-08-11</title>
  </rect>
  <rect x="360" y="46" width="13" height="13" rx="2" ry="2" fill="#ebedf0">
    <title>$0.00 on 2025-08-12</title>
  </rect>
  <rect x="360" y="62" width="13" height="13" rx="2" ry="2" fill="#ebedf0">
    <title>$0.00 on 2025-08-13</title>
  </rect>
  <rect x="360" y="78" width="13" height="13" rx="2" ry="2" fill="#ebedf0">
    <title>$0.00 on 2025-08-14</title>
  </rect>
  <rect x="360" y="94" width="13" height="13" rx="2" ry="2" fill="#ebedf0">
    <title>$0.00 on 2025-08-15</title>
  </rect>
  <rect x="360" y="110" width="13" height="13" rx="2" ry="2" fill="#ebedf0">
    <title>$0.00 on 2025-08-16</title>
  </rect>
  <rect x="360" y="126" width="13" height="13" rx="2" ry="2" fill="#ebedf0">
    <title>$0.00 on 2025-08-17</title>
  </rect>
  <rect x="376" y="30" width="13" height="13" rx="2" ry="2" fill="#ebedf0">
    <title>$0.00 on 2025-08-18</title>
  </rect>
  <rect x="376" y="46" width="13" height="13" rx="2" ry="2" fill="#ebedf0">
    <title>$0.00 on 2025-08-19</title>
  </rect>
  <rect x="376" y="62" width="13" height="13" rx="2" ry="2" fill="#ebedf0">
    <title>$0.00 on 2025-08-20</title>
  </rect>
  <rect x="376" y="78" width="13" height="13" rx="2" ry="2" fill="#ebedf0">
    <title>$0.00 on 2025-08-21</title>
  </rect>
  <rect x="376" y="94" width="13" height="13" rx="2" ry="2" fill="#ebedf0">
    <title>$0.00 on 2025-08-22</title>
  </rect>
  <rect x="376" y="110" width="13" height="13" rx="2" ry="2" fill="#ebedf0">
    <title>$0.00 on 2025-08-23</title>
  </rect>
  <rect x="376" y="126" width="13" height="13" rx="2" ry="2" fill="#ebedf0">
    <title>$0.00 on 2025-08-24</title>
  </rect>
  <rect x="392" y="30" width="13" height="13" rx="2" ry="2" fill="#ebedf0">
    <title>$0.00 on 2025-08-25</title>
  </rect>
  <rect x="392" y="46" width="13" height="13" rx="2" ry="2" fill="#ebedf0">
    <title>$0.00 on 2025-08-26</title>
  </rect>
  <rect x="392" y="62" width="13" height="13" rx="2" ry="2" fill="#ebedf0">
    <title>$0.00 on 2025-08-27</title>
  </rect>
  <rect x="392" y="78" width="13" height="13" rx="2" ry="2" fill="#ebedf0">
    <title>$0.00 on 2025-08-28</title>
  </rect>
  <rect x="392" y="94" width="13" height="13" rx="2" ry="2" fill="#ebedf0">
    <title>$0.00 on 2025-08-29</title>
  </rect>
  <rect x="392" y="110" width="13" height="13" rx="2" ry="2" fill="#ebedf0">
    <title>$0.00 on 2025-08-30</title>
  </rect>
  <rect x="392" y="126" width="13" height="13" rx="2" ry="2" fill="#ebedf0">
    <title>$0.00 on 2025-08-31</title>
  </rect>
  <rect x="408" y="30" width="13" height="13" rx="2" ry="2" fill="#ebedf0">
    <title>$0.00 on 2025-09-01</title>
  </rect>
  <rect x="408" y="46" width="13" height="13" rx="2" ry="2" fill="#ebedf0">
    <title>$0.00 on 2025-09-02</title>
  </rect>
  <rect x="408" y="62" width="13" height="13" rx="2" ry="2" fill="#ebedf0">
    <title>$0.00 on 2025-09-03</title>
  </rect>
  <rect x="408" y="78" width="13" height="13" rx="2" ry="2" fill="#ebedf0">
    <title>$0.00 on 2025-09-04</title>
  </rect>
  <rect x="408" y="94" width="13" height="13" rx="2" ry="2" fill="#ebedf0">
    <title>$0.00 on 2025-09-05</title>
  </rect>
  <rect x="408" y="110" width="13" height="13" rx="2" ry="2" fill="#ebedf0">
    <title>$0.00 on 2025-09-06</title>
  </rect>
  <rect x="408" y="126" width="13" height="13" rx="2" ry="2" fill="#ebedf0">
    <title>$0.00 on 2025-09-07</title>
  </rect>
  <rect x="424" y="30" width="13" height="13" rx="2" ry="2" fill="#ebedf0">
    <title>$0.00 on 2025-09-08</title>
  </rect>
  <rect x="424" y="46" width="13" height="13" rx="2" ry="2" fill="#ebedf0">
    <title>$0.00 on 2025-09-09</title>
  </rect>
  <rect x="424" y="62" width="13" height="13" rx="2" ry="2" fill="#ebedf0">
    <title>$0.00 on 2025-09-10</title>
  </rect>
  <rect x="424" y="78" width="13" height="13" rx="2" ry="2" fill="#ebedf0">
    <title>$0.00 on 2025-09-11</title>
  </rect>
  <rect x="424" y="94" width="13" height="13" rx="2" ry="2" fill="#ebedf0">
    <title>$0.00 on 2025-09-12</title>
  </rect>
  <rect x="424" y="110" width="13" height="13" rx="2" ry="2" fill="#ebedf0">
    <title>$0.00 on 2025-09-13</title>
  </rect>
  <rect x="424" y="126" width="13" height="13" rx="2" ry="2" fill="#ebedf0">
    <title>$0.00 on 2025-09-14</title>
  </rect>
  <rect x="440" y="30" width="13" height="13" rx="2" ry="2" fill="#ebedf0">
    <title>$0.00 on 2025-09-15</title>
  </rect>
  <rect x="440" y="46" width="13" height="13" rx="2" ry="2" fill="#ebedf0">
    <title>$0.00 on 2025-09-16</title>
  </rect>
  <rect x="440" y="62" width="13" height="13" rx="2" ry="2" fill="#ebedf0">
    <title>$0.00 on 2025-09-17</title>
  </rect>
  <rect x="440" y="78" width="13" height="13" rx="2" ry="2" fill="#ebedf0">
    <title>$0.00 on 2025-09-18</title>
  </rect>
  <rect x="440" y="94" width="13" height="13" rx="2" ry="2" fill="#ebedf0">
    <title>$0.00 on 2025-09-19</title>
  </rect>
  <rect x="440" y="110" width="13" height="13" rx="2" ry="2" fill="#ebedf0">
    <title>$0.00 on 2025-09-20</title>
  </rect>
  <rect x="440" y="126" width="13" height="13" rx="2" ry="2" fill="#ebedf0">
    <title>$0.00 on 2025-09-21</title>
  </rect>
  <rect x="456" y="30" width="13" height="13" rx="2" ry="2" fill="#ebedf0">
    <title>$0.00 on 2025-09-22</title>
  </rect>
  <rect x="456" y="46" width="13" height="13" rx="2" ry="2" fill="#ebedf0">
    <title>$0.00 on 2025-09-23</title>
  </rect>
  <rect x="456" y="62" width="13" height="13" rx="2" ry="2" fill="#ebedf0">
    <title>$0.00 on 2025-09-24</title>
  </rect>
  <rect x="456" y="78" width="13" height="13" rx="2" ry="2" fill="#ebedf0">
    <title>$0.00 on 2025-09-25</title>
  </rect>
  <rect x="456" y="94" width="13" height="13" rx="2" ry="2" fill="#ebedf0">
    <title>$0.00 on 2025-09-26</title>
  </rect>
  <rect x="456" y="110" width="13" height="13" rx="2" ry="2" fill="#ebedf0">
    <title>$0.00 on 2025-09-27</title>
  </rect>
  <rect x="456" y="126" width="13" height="13" rx="2" ry="2" fill="#ebedf0">
    <title>$0.00 on 2025-09-28</title>
  </rect>
  <rect x="472" y="30" width="13" height="13" rx="2" ry="2" fill="#ebedf0">
    <title>$0.00 on 2025-09-29</title>
  </rect>
  <rect x="472" y="46" width="13" height="13" rx="2" ry="2" fill="#ebedf0">
    <title>$0.00 on 2025-09-30</title>
  </rect>
  <rect x="472" y="62" width="13" height="13" rx="2" ry="2" fill="#ebedf0">
    <title>$0.00 on 2025-10-01</title>
  </rect>
  <rect x="472" y="78" width="13" height="13" rx="2" ry="2" fill="#ebedf0">
    <title>$0.00 on 2025-10-02</title>
  </rect>
  <rect x="472" y="94" width="13" height="13" rx="2" ry="2" fill="#ebedf0">
    <title>$0.00 on 2025-10-03</title>
  </rect>
  <rect x="472" y="110" width="13" height="13" rx="2" ry="2" fill="#ebedf0">
    <title>$0.00 on 2025-10-04</title>
  </rect>
  <rect x="472" y="126" width="13" height="13" rx="2" ry="2" fill="#ebedf0">
    <title>$0.00 on 2025-10-05</title>
  </rect>
  <rect x="488" y="30" width="13" height="13" rx="2" ry="2" fill="#ebedf0">
    <title>$0.00 on 2025-10-06</title>
  </rect>
  <rect x="488" y="46" width="13" height="13" rx="2" ry="2" fill="#ebedf0">
    <title>$0.00 on 2025-10-07</title>
  </rect>
  <rect x="488" y="62" width="13" height="13" rx="2" ry="2" fill="#ebedf0">
    <title>$0.00 on 2025-10-08</title>
  </rect>
  <rect x="488" y="78" width="13" height="13" rx="2" ry="2" fill="#ebedf0">
    <title>$0.00 on 2025-10-09</title>
  </rect>
  <rect x="488" y="94" width="13" height="13" rx="2" ry="2" fill="#ebedf0">
    <title>$0.00 on 2025-10-10</title>
  </rect>
  <rect x="488" y="110" width="13" height="13" rx="2" ry="2" fill="#ebedf0">
    <title>$0.00 on 2025-10-11</title>
  </rect>
  <rect x="488" y="126" width="13" height="13" rx="2" ry="2" fill="#ebedf0">
    <title>$0.00 on 2025-10-12</title>
  </rect>
  <rect x="504" y="30" width="13" height="13" rx="2" ry="2" fill="#ebedf0">
    <title>$0.00 on 2025-10-13</title>
  </rect>
  <rect x="504" y="46" width="13" height="13" rx="2" ry="2" fill="#ebedf0">
    <title>$0.00 on 2025-10-14</title>
  </rect>
  <rect x="504" y="62" width="13" height="13" rx="2" ry="2" fill="#ebedf0">
    <title>$0.00 on 2025-10-15</title>
  </rect>
  <rect x="504" y="78" width="13" height="13" rx="2" ry="2" fill="#ebedf0">
    <title>$0.00 on 2025-10-16</title>
  </rect>
  <rect x="504" y="94" width="13" height="13" rx="2" ry="2" fill="#ebedf0">
    <title>$0.00 on 2025-10-17</title>
  </rect>
  <rect x="504" y="110" width="13" height="13" rx="2" ry="2" fill="#ebedf0">
    <title>$0.00 on 2025-10-18</title>
  </rect>
  <rect x="504" y="126" width="13" height="13" rx="2" ry="2" fill="#ebedf0">
    <title>$0.00 on 2025-10-19</title>
  </rect>
  <rect x="520" y="30" width="13" height="13" rx="2" ry="2" fill="#ebedf0">
    <title>$0.00 on 2025-10-20</title>
  </rect>
  <rect x="520" y="46" width="13" height="13" rx="2" ry="2" fill="#ebedf0">
    <title>$0.00 on 2025-10-21</title>
  </rect>
  <rect x="520" y="62" width="13" height="13" rx="2" ry="2" fill="#ebedf0">
    <title>$0.00 on 2025-10-22</title>
  </rect>
  <rect x="520" y="78" width="13" height="13" rx="2" ry="2" fill="#ebedf0">
    <title>$0.00 on 2025-10-23</title>
  </rect>
  <rect x="520" y="94" width="13" height="13" rx="2" ry="2" fill="#ebedf0">
    <title>$0.00 on 2025-10-24</title>
  </rect>
  <rect x="520" y="110" width="13" height="13" rx="2" ry="2" fill="#ebedf0">
    <title>$0.00 on 2025-10-25</title>
  </rect>
  <rect x="520" y="126" width="13" height="13" rx="2" ry="2" fill="#ebedf0">
    <title>$0.00 on 2025-10-26</title>
  </rect>
  <rect x="536" y="30" width="13" height="13" rx="2" ry="2" fill="#ebedf0">
    <title>$0.00 on 2025-10-27</title>
  </rect>
  <rect x="536" y="46" width="13" height="13" rx="2" ry="2" fill="#ebedf0">
    <title>$0.00 on 2025-10-28</title>
  </rect>
  <rect x="536" y="62" width="13" height="13" rx="2" ry="2" fill="#ebedf0">
    <title>$0.00 on 2025-10-29</title>
  </rect>
  <rect x="536" y="78" width="13" height="13" rx="2" ry="2" fill="#ebedf0">
    <title>$0.00 on 2025-10-30</title>
  </rect>
  <rect x="536" y="94" width="13" height="13" rx="2" ry="2" fill="#ebedf0">
    <title>$0.00 on 2025-10-31</title>
  </rect>
  <rect x="536" y="110" width="13" height="13" rx="2" ry="2" fill="#ebedf0">
    <title>$0.00 on 2025-11-01</title>
  </rect>
  <rect x="536" y="126" width="13" height="13" rx="2" ry="2" fill="#ebedf0">
    <title>$0.00 on 2025-11-02</title>
  </rect>
  <rect x="552" y="30" width="13" height="13" rx="2" ry="2" fill="#ebedf0">
    <title>$0.00 on 2025-11-03</title>
  </rect>
  <rect x="552" y="46" width="13" height="13" rx="2" ry="2" fill="#ebedf0">
    <title>$0.00 on 2025-11-04</title>
  </rect>
  <rect x="552" y="62" width="13" height="13" rx="2" ry="2" fill="#ebedf0">
    <title>$0.00 on 2025-11-05</title>
  </rect>
  <rect x="552" y="78" width="13" height="13" rx="2" ry="2" fill="#ebedf0">
    <title>$0.00 on 2025-11-06</title>
  </rect>
  <rect x="552" y="94" width="13" height="13" rx="2" ry="2" fill="#ebedf0">
    <title>$0.00 on 2025-11-07</title>
  </rect>
  <rect x="552" y="110" width="13" height="13" rx="2" ry="2" fill="#ebedf0">
    <title>$0.00 on 2025-11-08</title>
  </rect>
  <rect x="552" y="126" width="13" height="13" rx="2" ry="2" fill="#ebedf0">
    <title>$0.00 on 2025-11-09</title>
  </rect>
  <rect x="568" y="30" width="13" height="13" rx="2" ry="2" fill="#ebedf0">
    <title>$0.00 on 2025-11-10</title>
  </rect>
  <rect x="568" y="46" width="13" height="13" rx="2" ry="2" fill="#ebedf0">
    <title>$0.00 on 2025-11-11</title>
  </rect>
  <rect x="568" y="62" width="13" height="13" rx="2" ry="2" fill="#ebedf0">
    <title>$0.00 on 2025-11-12</title>
  </rect>
  <rect x="568" y="78" width="13" height="13" rx="2" ry="2" fill="#ebedf0">
    <title>$0.00 on 2025-11-13</title>
  </rect>
  <rect x="568" y="94" width="13" height="13" rx="2" ry="2" fill="#ebedf0">
    <title>$0.00 on 2025-11-14</title>
  </rect>
  <rect x="568" y="110" width="13" height="13" rx="2" ry="2" fill="#ebedf0">
    <title>$0.00 on 2025-11-15</title>
  </rect>
  <rect x="568" y="126" width="13" height="13" rx="2" ry="2" fill="#ebedf0">
    <title>$0.00 on 2025-11-16</title>
  </rect>
  <rect x="584" y="30" width="13" height="13" rx="2" ry="2" fill="#ebedf0">
    <title>$0.00 on 2025-11-17</title>
  </rect>
  <rect x="584" y="46" width="13" height="13" rx="2" ry="2" fill="#ebedf0">
    <title>$0.00 on 2025-11-18</title>
  </rect>
  <rect x="584" y="62" width="13" height="13" rx="2" ry="2" fill="#ebedf0">
    <title>$0.00 on 2025-11-19</title>
  </rect>
  <rect x="584" y="78" width="13" height="13" rx="2" ry="2" fill="#ebedf0">
    <title>$0.00 on 2025-11-20</title>
  </rect>
  <rect x="584" y="94" width="13" height="13" rx="2" ry="2" fill="#ebedf0">
    <title>$0.00 on 2025-11-21</title>
  </rect>
  <rect x="584" y="110" width="13" height="13" rx="2" ry="2" fill="#ebedf0">
    <title>$0.00 on 2025-11-22</title>
  </rect>
  <rect x="584" y="126" width="13" height="13" rx="2" ry="2" fill="#ebedf0">
    <title>$0.00 on 2025-11-23</title>
  </rect>
  <rect x="600" y="30" width="13" height="13" rx="2" ry="2" fill="#ebedf0">
    <title>$0.00 on 2025-11-24</title>
  </rect>
  <rect x="600" y="46" width="13" height="13" rx="2" ry="2" fill="#ebedf0">
    <title>$0.00 on 2025-11-25</title>
  </rect>
  <rect x="600" y="62" width="13" height="13" rx="2" ry="2" fill="#ebedf0">
    <title>$0.00 on 2025-11-26</title>
  </rect>
  <rect x="600" y="78" width="13" height="13" rx="2" ry="2" fill="#ebedf0">
    <title>$0.00 on 2025-11-27</title>
  </rect>
  <rect x="600" y="94" width="13" height="13" rx="2" ry="2" fill="#ebedf0">
    <title>$0.00 on 2025-11-28</title>
  </rect>
  <rect x="600" y="110" width="13" height="13" rx="2" ry="2" fill="#ebedf0">
    <title>$0.00 on 2025-11-29</title>
  </rect>
  <rect x="600" y="126" width="13" height="13" rx="2" ry="2" fill="#ebedf0">
    <title>$0.00 on 2025-11-30</title>
  </rect>
  <rect x="616" y="30" width="13" height="13" rx="2" ry="2" fill="#ebedf0">
    <title>$0.00 on 2025-12-01</title>
  </rect>
  <rect x="616" y="46" width="13" height="13" rx="2" ry="2" fill="#ebedf0">
    <title>$0.00 on 2025-12-02</title>
  </rect>
  <rect x="616" y="62" width="13" height="13" rx="2" ry="2" fill="#ebedf0">
    <title>$0.00 on 2025-12-03</title>
  </rect>
  <rect x="616" y="78" width="13" height="13" rx="2" ry="2" fill="#ebedf0">
    <title>$0.00 on 2025-12-04</title>
  </rect>
  <rect x="616" y="94" width="13" height="13" rx="2" ry="2" fill="#ebedf0">
    <title>$0.00 on 2025-12-05</title>
  </rect>
  <rect x="616" y="110" width="13" height="13" rx="2" ry="2" fill="#ebedf0">
    <title>$0.00 on 2025-12-06</title>
  </rect>
  <rect x="616" y="126" width="13" height="13" rx="2" ry="2" fill="#ebedf0">
    <title>$0.00 on 2025-12-07</title>
  </rect>
  <rect x="632" y="30" width="13" height="13" rx="2" ry="2" fill="#ebedf0">
    <title>$0.00 on 2025-12-08</title>
  </rect>
  <rect x="632" y="46" width="13" height="13" rx="2" ry="2" fill="#ebedf0">
    <title>$0.00 on 2025-12-09</title>
  </rect>
  <rect x="632" y="62" width="13" height="13" rx="2" ry="2" fill="#ebedf0">
    <title>$0.00 on 2025-12-10</title>
  </rect>
  <rect x="632" y="78" width="13" height="13" rx="2" ry="2" fill="#ebedf0">
    <title>$0.00 on 2025-12-11</title>
  </rect>
  <rect x="632" y="94" width="13" height="13" rx="2" ry="2" fill="#ebedf0">
    <title>$0.00 on 2025-12-12</title>
  </rect>
  <rect x="632" y="110" width="13" height="13" rx="2" ry="2" fill="#ebedf0">
    <title>$0.00 on 2025-12-13</title>
  </rect>
  <rect x="632" y="126" width="13" height="13" rx="2" ry="2" fill="#ebedf0">
    <title>$0.00 on 2025-12-14</title>
  </rect>
  <rect x="648" y="30" width="13" height="13" rx="2" ry="2" fill="#ebedf0">
    <title>$0.00 on 2025-12-15</title>
  </rect>
  <rect x="648" y="46" width="13" height="13" rx="2" ry="2" fill="#ebedf0">
    <title>$0.00 on 2025-12-16</title>
  </rect>
  <rect x="648" y="62" width="13" height="13" rx="2" ry="2" fill="#ebedf0">
    <title>$0.00 on 2025-12-17</title>
  </rect>
  <rect x="648" y="78" width="13" height="13" rx="2" ry="2" fill="#ebedf0">
    <title>$0.00 on 2025-12-18</title>
  </rect>
  <rect x="648" y="94" width="13" height="13" rx="2" ry="2" fill="#ebedf0">
    <title>$0.00 on 2025-12-19</title>
  </rect>
  <rect x="648" y="110" width="13" height="13" rx="2" ry="2" fill="#ebedf0">
    <title>$0.00 on 2025-12-20</title>
  </rect>
  <rect x="648" y="126" width="13" height="13" rx="2" ry="2" fill="#ebedf0">
    <title>$0.00 on 2025-12-21</title>
  </rect>
  <rect x="664" y="30" width="13" height="13" rx="2" ry="2" fill="#ebedf0">
    <title>$0.00 on 2025-12-22</title>
  </rect>
  <rect x="664" y="46" width="13" height="13" rx="2" ry="2" fill="#ebedf0">
    <title>$0.00 on 2025-12-23</title>
  </rect>
  <rect x="664" y="62" width="13" height="13" rx="2" ry="2" fill="#ebedf0">
    <title>$0.00 on 2025-12-24</title>
  </rect>
  <rect x="664" y="78" width="13" height="13" rx="2" ry="2" fill="#ebedf0">
    <title>$0.00 on 2025-12-25</title>
  </rect>
  <rect x="664" y="94" width="13" height="13" rx="2" ry="2" fill="#ebedf0">
    <title>$0.00 on 2025-12-26</title>
  </rect>
  <rect x="664" y="110" width="13" height="13" rx="2" ry="2" fill="#ebedf0">
    <title>$0.00 on 2025-12-27</title>
  </rect>
  <rect x="664" y="126" width="13" height="13" rx="2" ry="2" fill="#ebedf0">
    <title>$0.00 on 2025-12-28</title>
  </rect>
  <rect x="680" y="30" width="13" height="13" rx="2" ry="2" fill="#ebedf0">
    <title>$0.00 on 2025-12-29</title>
  </rect>
  <rect x="680" y="46" width="13" height="13" rx="2" ry="2" fill="#ebedf0">
    <title>$0.00 on 2025-12-30</title>
  </rect>
  <rect x="680" y="62" width="13" height="13" rx="2" ry="2" fill="#ebedf0">
    <title>$0.00 on 2025-12-31</title>
  </rect>
  <rect x="680" y="78" width="13" height="13" rx="2" ry="2" fill="#ebedf0">
    <title>$0.00 on 2026-01-01</title>
  </rect>
  <rect x="680" y="94" width="13" height="13" rx="2" ry="2" fill="#ebedf0">
    <title>$0.00 on 2026-01-02</title>
  </rect>
  <rect x="680" y="110" width="13" height="13" rx="2" ry="2" fill="#ebedf0">
    <title>$0.00 on 2026-01-03</title>
  </rect>
  <rect x="680" y="126" width="13" height="13" rx="2" ry="2" fill="#ebedf0">
    <title>$0.00 on 2026-01-04</title>
  </rect>
  <rect x="696" y="30" width="13" height="13" rx="2" ry="2" fill="#ebedf0">
    <title>$0.00 on 2026-01-05</title>
  </rect>
  <rect x="696" y="46" width="13" height="13" rx="2" ry="2" fill="#ebedf0">
    <title>$0.00 on 2026-01-06</title>
  </rect>
  <rect x="696" y="62" width="13" height="13" rx="2" ry="2" fill="#ebedf0">
    <title>$0.00 on 2026-01-07</title>
  </rect>
  <rect x="696" y="78" width="13" height="13" rx="2" ry="2" fill="#ebedf0">
    <title>$0.00 on 2026-01-08</title>
  </rect>
  <rect x="696" y="94" width="13" height="13" rx="2" ry="2" fill="#9be9a8">
    <title>$0.05 on 2026-01-09</title>
  </rect>
  <rect x="696" y="110" width="13" height="13" rx="2" ry="2" fill="#9be9a8">
    <title>$0.48 on 2026-01-10</title>
  </rect>
  <rect x="696" y="126" width="13" height="13" rx="2" ry="2" fill="#ebedf0">
    <title>$0.00 on 2026-01-11</title>
  </rect>
  <rect x="712" y="30" width="13" height="13" rx="2" ry="2" fill="#ebedf0">
    <title>$0.00 on 2026-01-12</title>
  </rect>
  <rect x="712" y="46" width="13" height="13" rx="2" ry="2" fill="#40c463">
    <title>$8.80 on 2026-01-13</title>
  </rect>
  <rect x="712" y="62" width="13" height="13" rx="2" ry="2" fill="#ebedf0">
    <title>$0.00 on 2026-01-14</title>
  </rect>
  <rect x="712" y="78" width="13" height="13" rx="2" ry="2" fill="#ebedf0">
    <title>$0.00 on 2026-01-15</title>
  </rect>
  <rect x="712" y="94" width="13" height="13" rx="2" ry="2" fill="#9be9a8">
    <title>$0.24 on 2026-01-16</title>
  </rect>
  <rect x="712" y="110" width="13" height="13" rx="2" ry="2" fill="#9be9a8">
    <title>$0.42 on 2026-01-17</title>
  </rect>
  <rect x="712" y="126" width="13" height="13" rx="2" ry="2" fill="#9be9a8">
    <title>$0.12 on 2026-01-18</title>
  </rect>
  <rect x="728" y="30" width="13" height="13" rx="2" ry="2" fill="#9be9a8">
    <title>$0.70 on 2026-01-19</title>
  </rect>
  <rect x="728" y="46" width="13" height="13" rx="2" ry="2" fill="#30a14e">
    <title>$15.63 on 2026-01-20</title>
  </rect>
  <rect x="728" y="62" width="13" height="13" rx="2" ry="2" fill="#9be9a8">
    <title>$0.11 on 2026-01-21</title>
  </rect>
  <rect x="728" y="78" width="13" height="13" rx="2" ry="2" fill="#40c463">
    <title>$0.98 on 2026-01-22</title>
  </rect>
  <rect x="728" y="94" width="13" height="13" rx="2" ry="2" fill="#ebedf0">
    <title>$0.00 on 2026-01-23</title>
  </rect>
  <rect x="728" y="110" width="13" height="13" rx="2" ry="2" fill="#ebedf0">
    <title>$0.00 on 2026-01-24</title>
  </rect>
  <rect x="728" y="126" width="13" height="13" rx="2" ry="2" fill="#ebedf0">
    <title>$0.00 on 2026-01-25</title>
  </rect>
  <rect x="744" y="30" width="13" height="13" rx="2" ry="2" fill="#ebedf0">
    <title>$0.00 on 2026-01-26</title>
  </rect>
  <rect x="744" y="46" width="13" height="13" rx="2" ry="2" fill="#ebedf0">
    <title>$0.00 on 2026-01-27</title>
  </rect>
  <rect x="744" y="62" width="13" height="13" rx="2" ry="2" fill="#ebedf0">
    <title>$0.00 on 2026-01-28</title>
  </rect>
  <rect x="744" y="78" width="13" height="13" rx="2" ry="2" fill="#ebedf0">
    <title>$0.00 on 2026-01-29</title>
  </rect>
  <rect x="744" y="94" width="13" height="13" rx="2" ry="2" fill="#ebedf0">
    <title>$0.00 on 2026-01-30</title>
  </rect>
  <rect x="744" y="110" width="13" height="13" rx="2" ry="2" fill="#ebedf0">
    <title>$0.00 on 2026-01-31</title>
  </rect>
  <rect x="744" y="126" width="13" height="13" rx="2" ry="2" fill="#ebedf0">
    <title>$0.00 on 2026-02-01</title>
  </rect>
  <rect x="760" y="30" width="13" height="13" rx="2" ry="2" fill="#ebedf0">
    <title>$0.00 on 2026-02-02</title>
  </rect>
  <rect x="760" y="46" width="13" height="13" rx="2" ry="2" fill="#ebedf0">
    <title>$0.00 on 2026-02-03</title>
  </rect>
  <rect x="760" y="62" width="13" height="13" rx="2" ry="2" fill="#ebedf0">
    <title>$0.00 on 2026-02-04</title>
  </rect>
  <rect x="760" y="78" width="13" height="13" rx="2" ry="2" fill="#ebedf0">
    <title>$0.00 on 2026-02-05</title>
  </rect>
  <rect x="760" y="94" width="13" height="13" rx="2" ry="2" fill="#9be9a8">
    <title>$0.22 on 2026-02-06</title>
  </rect>
  <rect x="760" y="110" width="13" height="13" rx="2" ry="2" fill="#ebedf0">
    <title>$0.00 on 2026-02-07</title>
  </rect>
  <rect x="760" y="126" width="13" height="13" rx="2" ry="2" fill="#ebedf0">
    <title>$0.00 on 2026-02-08</title>
  </rect>
  <rect x="776" y="30" width="13" height="13" rx="2" ry="2" fill="#9be9a8">
    <title>$0.14 on 2026-02-09</title>
  </rect>
  <rect x="776" y="46" width="13" height="13" rx="2" ry="2" fill="#40c463">
    <title>$1.18 on 2026-02-10</title>
  </rect>
  <rect x="776" y="62" width="13" height="13" rx="2" ry="2" fill="#ebedf0">
    <title>$0.00 on 2026-02-11</title>
  </rect>
  <rect x="776" y="78" width="13" height="13" rx="2" ry="2" fill="#9be9a8">
    <title>$0.46 on 2026-02-12</title>
  </rect>
  <rect x="776" y="94" width="13" height="13" rx="2" ry="2" fill="#ebedf0">
    <title>$0.00 on 2026-02-13</title>
  </rect>
  <rect x="776" y="110" width="13" height="13" rx="2" ry="2" fill="#ebedf0">
    <title>$0.00 on 2026-02-14</title>
  </rect>
  <rect x="776" y="126" width="13" height="13" rx="2" ry="2" fill="#ebedf0">
    <title>$0.00 on 2026-02-15</title>
  </rect>
  <rect x="792" y="30" width="13" height="13" rx="2" ry="2" fill="#ebedf0">
    <title>$0.00 on 2026-02-16</title>
  </rect>
  <rect x="792" y="46" width="13" height="13" rx="2" ry="2" fill="#ebedf0">
    <title>$0.00 on 2026-02-17</title>
  </rect>
  <rect x="792" y="62" width="13" height="13" rx="2" ry="2" fill="#40c463">
    <title>$1.13 on 2026-02-18</title>
  </rect>
  <rect x="792" y="78" width="13" height="13" rx="2" ry="2" fill="#40c463">
    <title>$2.31 on 2026-02-19</title>
  </rect>
  <rect x="792" y="94" width="13" height="13" rx="2" ry="2" fill="#40c463">
    <title>$2.92 on 2026-02-20</title>
  </rect>
  <rect x="792" y="110" width="13" height="13" rx="2" ry="2" fill="#ebedf0">
    <title>$0.00 on 2026-02-21</title>
  </rect>
  <rect x="792" y="126" width="13" height="13" rx="2" ry="2" fill="#ebedf0">
    <title>$0.00 on 2026-02-22</title>
  </rect>
  <rect x="808" y="30" width="13" height="13" rx="2" ry="2" fill="#9be9a8">
    <title>$0.66 on 2026-02-23</title>
  </rect>
  <rect x="808" y="46" width="13" height="13" rx="2" ry="2" fill="#30a14e">
    <title>$12.46 on 2026-02-24</title>
  </rect>
  <rect x="808" y="62" width="13" height="13" rx="2" ry="2" fill="#30a14e">
    <title>$23.56 on 2026-02-25</title>
  </rect>
  <rect x="808" y="78" width="13" height="13" rx="2" ry="2" fill="#30a14e">
    <title>$35.54 on 2026-02-26</title>
  </rect>
  <rect x="808" y="94" width="13" height="13" rx="2" ry="2" fill="#40c463">
    <title>$2.63 on 2026-02-27</title>
  </rect>
  <rect x="808" y="110" width="13" height="13" rx="2" ry="2" fill="#40c463">
    <title>$2.62 on 2026-02-28</title>
  </rect>
  <rect x="808" y="126" width="13" height="13" rx="2" ry="2" fill="#40c463">
    <title>$1.15 on 2026-03-01</title>
  </rect>
  <rect x="824" y="30" width="13" height="13" rx="2" ry="2" fill="#216e39">
    <title>$49.46 on 2026-03-02</title>
  </rect>
  <rect x="824" y="46" width="13" height="13" rx="2" ry="2" fill="#30a14e">
    <title>$12.28 on 2026-03-03</title>
  </rect>
  <rect x="824" y="62" width="13" height="13" rx="2" ry="2" fill="#30a14e">
    <title>$10.61 on 2026-03-04</title>
  </rect>
  <rect x="824" y="78" width="13" height="13" rx="2" ry="2" fill="#216e39">
    <title>$53.11 on 2026-03-05</title>
  </rect>
  <rect x="824" y="94" width="13" height="13" rx="2" ry="2" fill="#216e39">
    <title>$46.06 on 2026-03-06</title>
  </rect>
  <rect x="824" y="110" width="13" height="13" rx="2" ry="2" fill="#40c463">
    <title>$1.44 on 2026-03-07</title>
  </rect>
  <rect x="824" y="126" width="13" height="13" rx="2" ry="2" fill="#9be9a8">
    <title>$0.06 on 2026-03-08</title>
  </rect>
  <rect x="840" y="30" width="13" height="13" rx="2" ry="2" fill="#216e39">
    <title>$51.41 on 2026-03-09</title>
  </rect>
  <rect x="840" y="46" width="13" height="13" rx="2" ry="2" fill="#216e39">
    <title>$55.35 on 2026-03-10</title>
  </rect>
  <rect x="840" y="62" width="13" height="13" rx="2" ry="2" fill="#30a14e">
    <title>$39.10 on 2026-03-11</title>
  </rect>
  <rect x="840" y="78" width="13" height="13" rx="2" ry="2" fill="#30a14e">
    <title>$12.63 on 2026-03-12</title>
  </rect>
  <rect x="840" y="94" width="13" height="13" rx="2" ry="2" fill="#30a14e">
    <title>$18.25 on 2026-03-13</title>
  </rect>
  <rect x="840" y="110" width="13" height="13" rx="2" ry="2" fill="#40c463">
    <title>$5.72 on 2026-03-14</title>
  </rect>
  <rect x="840" y="126" width="13" height="13" rx="2" ry="2" fill="#ebedf0">
    <title>$0.00 on 2026-03-15</title>
  </rect>
  <rect x="856" y="30" width="13" height="13" rx="2" ry="2" fill="#30a14e">
    <title>$13.83 on 2026-03-16</title>
  </rect>
  <rect x="856" y="46" width="13" height="13" rx="2" ry="2" fill="#216e39">
    <title>$48.55 on 2026-03-17</title>
  </rect>
  <rect x="856" y="62" width="13" height="13" rx="2" ry="2" fill="#30a14e">
    <title>$14.52 on 2026-03-18</title>
  </rect>
  <rect x="856" y="78" width="13" height="13" rx="2" ry="2" fill="#216e39">
    <title>$99.40 on 2026-03-19</title>
  </rect>
  <rect x="856" y="94" width="13" height="13" rx="2" ry="2" fill="#30a14e">
    <title>$13.64 on 2026-03-20</title>
  </rect>
  <rect x="856" y="110" width="13" height="13" rx="2" ry="2" fill="#ebedf0">
    <title>$0.00 on 2026-03-21</title>
  </rect>
  <rect x="856" y="126" width="13" height="13" rx="2" ry="2" fill="#40c463">
    <title>$3.22 on 2026-03-22</title>
  </rect>
  <rect x="872" y="30" width="13" height="13" rx="2" ry="2" fill="#216e39">
    <title>$459.24 on 2026-03-23</title>
  </rect>
  <rect x="872" y="46" width="13" height="13" rx="2" ry="2" fill="#216e39">
    <title>$68.99 on 2026-03-24</title>
  </rect>
  <rect x="872" y="62" width="13" height="13" rx="2" ry="2" fill="#216e39">
    <title>$130.56 on 2026-03-25</title>
  </rect>
  <rect x="872" y="78" width="13" height="13" rx="2" ry="2" fill="#216e39">
    <title>$101.27 on 2026-03-26</title>
  </rect>
  <rect x="872" y="94" width="13" height="13" rx="2" ry="2" fill="#ebedf0" />
  <rect x="872" y="110" width="13" height="13" rx="2" ry="2" fill="#ebedf0" />
  <rect x="872" y="126" width="13" height="13" rx="2" ry="2" fill="#ebedf0" />
  <rect x="40" y="152" width="50" height="12" fill="#ebedf0" />
  <rect x="90" y="152" width="50" height="12" fill="#9be9a8" />
  <rect x="140" y="152" width="50" height="12" fill="#40c463" />
  <rect x="190" y="152" width="50" height="12" fill="#30a14e" />
  <rect x="240" y="152" width="50" height="12" fill="#216e39" />
  <rect x="40" y="152" width="250" height="12" fill="none" stroke="#d0d7de" stroke-width="0.5" rx="2" />
  <text x="65" y="176" font-family="Arial, sans-serif" font-size="9" fill="#57606a" text-anchor="middle">0</text>
  <text x="115" y="176" font-family="Arial, sans-serif" font-size="9" fill="#57606a" text-anchor="middle">$0.70</text>
  <text x="165" y="176" font-family="Arial, sans-serif" font-size="9" fill="#57606a" text-anchor="middle">$8.80</text>
  <text x="215" y="176" font-family="Arial, sans-serif" font-size="9" fill="#57606a" text-anchor="middle">$39.10</text>
  <text x="265" y="176" font-family="Arial, sans-serif" font-size="9" fill="#57606a" text-anchor="middle">$459.24</text>
  <text x="40" y="148" font-family="Arial, sans-serif" font-size="9" fill="#57606a">Cost per day</text>
</svg>