<?xml version="1.0" encoding="UTF-8"?>
<svg xmlns="http://www.w3.org/2000/svg" width="800" height="200" viewBox="0 0 800 200">
  <rect width="800" height="200" fill="#ffffff" rx="6" />
  <text x="70" y="20" font-family="Arial, sans-serif" font-size="14" fill="#24292f" font-weight="bold">Last 14 Days — Cost &amp; Tokens</text>
  <line x1="70" y1="35.0" x2="720" y2="35.0" stroke="#ebedf0" stroke-width="1" />
  <line x1="70" y1="66.25" x2="720" y2="66.25" stroke="#ebedf0" stroke-width="1" />
  <line x1="70" y1="97.5" x2="720" y2="97.5" stroke="#ebedf0" stroke-width="1" />
  <line x1="70" y1="128.75" x2="720" y2="128.75" stroke="#ebedf0" stroke-width="1" />
  <line x1="70" y1="160.0" x2="720" y2="160.0" stroke="#ebedf0" stroke-width="1" />
  <text x="70.0" y="178" font-family="Arial, sans-serif" font-size="9" fill="#57606a" text-anchor="middle">03-17</text>
  <text x="170.0" y="178" font-family="Arial, sans-serif" font-size="9" fill="#57606a" text-anchor="middle">03-19</text>
  <text x="270.0" y="178" font-family="Arial, sans-serif" font-size="9" fill="#57606a" text-anchor="middle">03-21</text>
  <text x="370.0" y="178" font-family="Arial, sans-serif" font-size="9" fill="#57606a" text-anchor="middle">03-23</text>
  <text x="470.0" y="178" font-family="Arial, sans-serif" font-size="9" fill="#57606a" text-anchor="middle">03-25</text>
  <text x="570.0" y="178" font-family="Arial, sans-serif" font-size="9" fill="#57606a" text-anchor="middle">03-27</text>
  <text x="670.0" y="178" font-family="Arial, sans-serif" font-size="9" fill="#57606a" text-anchor="middle">03-29</text>
  <text x="64" y="39.0" font-family="Arial, sans-serif" font-size="9" fill="#30a14e" text-anchor="end">$334.20</text>
  <text x="64" y="70.25" font-family="Arial, sans-serif" font-size="9" fill="#30a14e" text-anchor="end">$250.65</text>
  <text x="64" y="101.5" font-family="Arial, sans-serif" font-size="9" fill="#30a14e" text-anchor="end">$167.10</text>
  <text x="64" y="132.75" font-family="Arial, sans-serif" font-size="9" fill="#30a14e" text-anchor="end">$83.55</text>
  <text x="64" y="164.0" font-family="Arial, sans-serif" font-size="9" fill="#30a14e" text-anchor="end">$0.00</text>
  <text x="726" y="39.0" font-family="Arial, sans-serif" font-size="9" fill="#0969da">607.4M</text>
  <text x="726" y="70.25" font-family="Arial, sans-serif" font-size="9" fill="#0969da">455.5M</text>
  <text x="726" y="101.5" font-family="Arial, sans-serif" font-size="9" fill="#0969da">303.7M</text>
  <text x="726" y="132.75" font-family="Arial, sans-serif" font-size="9" fill="#0969da">151.8M</text>
  <text x="726" y="164.0" font-family="Arial, sans-serif" font-size="9" fill="#0969da">0</text>
  <polyline points="70.0,143.48164755550445 120.0,154.56754955704764 170.0,123.80176962763832 220.0,154.9661403202327 270.0,160.0 320.0,158.68790921461616 370.0,35.0 420.0,135.9470775499868 470.0,114.94331612982536 520.0,131.07573737060378 570.0,85.03906308940724 620.0,142.33421748159802 670.0,159.66964879690252 720.0,144.16752191842482" fill="none" stroke="#30a14e" stroke-width="2" />
  <circle cx="70.0" cy="143.48164755550445" r="3" fill="#30a14e">
    <title>2026-03-17: $44.16</title>
  </circle>
  <circle cx="120.0" cy="154.56754955704764" r="3" fill="#30a14e">
    <title>2026-03-18: $14.52</title>
  </circle>
  <circle cx="170.0" cy="123.80176962763832" r="3" fill="#30a14e">
    <title>2026-03-19: $96.78</title>
  </circle>
  <circle cx="220.0" cy="154.9661403202327" r="3" fill="#30a14e">
    <title>2026-03-20: $13.46</title>
  </circle>
  <circle cx="270.0" cy="160.0" r="3" fill="#30a14e">
    <title>2026-03-21: $0.00</title>
  </circle>
  <circle cx="320.0" cy="158.68790921461616" r="3" fill="#30a14e">
    <title>2026-03-22: $3.51</title>
  </circle>
  <circle cx="370.0" cy="35.0" r="3" fill="#30a14e">
    <title>2026-03-23: $334.20</title>
  </circle>
  <circle cx="420.0" cy="135.9470775499868" r="3" fill="#30a14e">
    <title>2026-03-24: $64.31</title>
  </circle>
  <circle cx="470.0" cy="114.94331612982536" r="3" fill="#30a14e">
    <title>2026-03-25: $120.46</title>
  </circle>
  <circle cx="520.0" cy="131.07573737060378" r="3" fill="#30a14e">
    <title>2026-03-26: $77.33</title>
  </circle>
  <circle cx="570.0" cy="85.03906308940724" r="3" fill="#30a14e">
    <title>2026-03-27: $200.41</title>
  </circle>
  <circle cx="620.0" cy="142.33421748159802" r="3" fill="#30a14e">
    <title>2026-03-28: $47.23</title>
  </circle>
  <circle cx="670.0" cy="159.66964879690252" r="3" fill="#30a14e">
    <title>2026-03-29: $0.88</title>
  </circle>
  <circle cx="720.0" cy="144.16752191842482" r="3" fill="#30a14e">
    <title>2026-03-30: $42.33</title>
  </circle>
  <polyline points="70.0,147.16945947307752 120.0,156.62967862277833 170.0,129.85927632561726 220.0,155.6620102050015 270.0,160.0 320.0,159.06176466331146 370.0,35.0 420.0,141.05976313147409 470.0,125.01191900245931 520.0,140.60830434448297 570.0,102.84782209137296 620.0,146.40456117607496 670.0,159.9688084913335 720.0,150.28400949135323" fill="none" stroke="#0969da" stroke-width="2" stroke-dasharray="6,3" />
  <circle cx="70.0" cy="147.16945947307752" r="3" fill="#0969da">
    <title>2026-03-17: 62.3M</title>
  </circle>
  <circle cx="120.0" cy="156.62967862277833" r="3" fill="#0969da">
    <title>2026-03-18: 16.4M</title>
  </circle>
  <circle cx="170.0" cy="129.85927632561726" r="3" fill="#0969da">
    <title>2026-03-19: 146.5M</title>
  </circle>
  <circle cx="220.0" cy="155.6620102050015" r="3" fill="#0969da">
    <title>2026-03-20: 21.1M</title>
  </circle>
  <circle cx="270.0" cy="160.0" r="3" fill="#0969da">
    <title>2026-03-21: 0</title>
  </circle>
  <circle cx="320.0" cy="159.06176466331146" r="3" fill="#0969da">
    <title>2026-03-22: 4.6M</title>
  </circle>
  <circle cx="370.0" cy="35.0" r="3" fill="#0969da">
    <title>2026-03-23: 607.4M</title>
  </circle>
  <circle cx="420.0" cy="141.05976313147409" r="3" fill="#0969da">
    <title>2026-03-24: 92.0M</title>
  </circle>
  <circle cx="470.0" cy="125.01191900245931" r="3" fill="#0969da">
    <title>2026-03-25: 170.0M</title>
  </circle>
  <circle cx="520.0" cy="140.60830434448297" r="3" fill="#0969da">
    <title>2026-03-26: 94.2M</title>
  </circle>
  <circle cx="570.0" cy="102.84782209137296" r="3" fill="#0969da">
    <title>2026-03-27: 277.7M</title>
  </circle>
  <circle cx="620.0" cy="146.40456117607496" r="3" fill="#0969da">
    <title>2026-03-28: 66.1M</title>
  </circle>
  <circle cx="670.0" cy="159.9688084913335" r="3" fill="#0969da">
    <title>2026-03-29: 151.6K</title>
  </circle>
  <circle cx="720.0" cy="150.28400949135323" r="3" fill="#0969da">
    <title>2026-03-30: 47.2M</title>
  </circle>
  <line x1="560" y1="23" x2="580" y2="23" stroke="#30a14e" stroke-width="2" />
  <text x="584" y="27" font-family="Arial, sans-serif" font-size="10" fill="#30a14e">Cost ($)</text>
  <line x1="640" y1="23" x2="660" y2="23" stroke="#0969da" stroke-width="2" stroke-dasharray="6,3" />
  <text x="664" y="27" font-family="Arial, sans-serif" font-size="10" fill="#0969da">Tokens</text>
</svg>