<?xml version="1.0" encoding="UTF-8"?>
<svg xmlns="http://www.w3.org/2000/svg" width="800" height="200" viewBox="0 0 800 200">
  <rect width="800" height="200" fill="#ffffff" rx="6" />
  <text x="70" y="20" font-family="Arial, sans-serif" font-size="14" fill="#24292f" font-weight="bold">Last 14 Days — Cost &amp; Tokens</text>
  <line x1="70" y1="35.0" x2="720" y2="35.0" stroke="#ebedf0" stroke-width="1" />
  <line x1="70" y1="66.25" x2="720" y2="66.25" stroke="#ebedf0" stroke-width="1" />
  <line x1="70" y1="97.5" x2="720" y2="97.5" stroke="#ebedf0" stroke-width="1" />
  <line x1="70" y1="128.75" x2="720" y2="128.75" stroke="#ebedf0" stroke-width="1" />
  <line x1="70" y1="160.0" x2="720" y2="160.0" stroke="#ebedf0" stroke-width="1" />
  <text x="70.0" y="178" font-family="Arial, sans-serif" font-size="9" fill="#57606a" text-anchor="middle">04-11</text>
  <text x="170.0" y="178" font-family="Arial, sans-serif" font-size="9" fill="#57606a" text-anchor="middle">04-13</text>
  <text x="270.0" y="178" font-family="Arial, sans-serif" font-size="9" fill="#57606a" text-anchor="middle">04-15</text>
  <text x="370.0" y="178" font-family="Arial, sans-serif" font-size="9" fill="#57606a" text-anchor="middle">04-17</text>
  <text x="470.0" y="178" font-family="Arial, sans-serif" font-size="9" fill="#57606a" text-anchor="middle">04-19</text>
  <text x="570.0" y="178" font-family="Arial, sans-serif" font-size="9" fill="#57606a" text-anchor="middle">04-21</text>
  <text x="670.0" y="178" font-family="Arial, sans-serif" font-size="9" fill="#57606a" text-anchor="middle">04-23</text>
  <text x="64" y="39.0" font-family="Arial, sans-serif" font-size="9" fill="#30a14e" text-anchor="end">$637.41</text>
  <text x="64" y="70.25" font-family="Arial, sans-serif" font-size="9" fill="#30a14e" text-anchor="end">$478.06</text>
  <text x="64" y="101.5" font-family="Arial, sans-serif" font-size="9" fill="#30a14e" text-anchor="end">$318.70</text>
  <text x="64" y="132.75" font-family="Arial, sans-serif" font-size="9" fill="#30a14e" text-anchor="end">$159.35</text>
  <text x="64" y="164.0" font-family="Arial, sans-serif" font-size="9" fill="#30a14e" text-anchor="end">$0.00</text>
  <text x="726" y="39.0" font-family="Arial, sans-serif" font-size="9" fill="#0969da">1.11B</text>
  <text x="726" y="70.25" font-family="Arial, sans-serif" font-size="9" fill="#0969da">833.7M</text>
  <text x="726" y="101.5" font-family="Arial, sans-serif" font-size="9" fill="#0969da">555.8M</text>
  <text x="726" y="132.75" font-family="Arial, sans-serif" font-size="9" fill="#0969da">277.9M</text>
  <text x="726" y="164.0" font-family="Arial, sans-serif" font-size="9" fill="#0969da">0</text>
  <polyline points="70.0,35.0 120.0,47.445685254492034 170.0,50.71140694765788 220.0,150.7857100755916 270.0,158.85903996116656 320.0,122.86735773450872 370.0,97.36810099317336 420.0,85.98858198174764 470.0,50.92096398119817 520.0,119.00666626391642 570.0,138.81809535276324 620.0,138.5992193171885 670.0,132.1390154171263 720.0,136.54445932599478" fill="none" stroke="#30a14e" stroke-width="2" />
  <circle cx="70.0" cy="35.0" r="3" fill="#30a14e">
    <title>2026-04-11: $637.41</title>
  </circle>
  <circle cx="120.0" cy="47.445685254492034" r="3" fill="#30a14e">
    <title>2026-04-12: $573.95</title>
  </circle>
  <circle cx="170.0" cy="50.71140694765788" r="3" fill="#30a14e">
    <title>2026-04-13: $557.29</title>
  </circle>
  <circle cx="220.0" cy="150.7857100755916" r="3" fill="#30a14e">
    <title>2026-04-14: $46.99</title>
  </circle>
  <circle cx="270.0" cy="158.85903996116656" r="3" fill="#30a14e">
    <title>2026-04-15: $5.82</title>
  </circle>
  <circle cx="320.0" cy="122.86735773450872" r="3" fill="#30a14e">
    <title>2026-04-16: $189.35</title>
  </circle>
  <circle cx="370.0" cy="97.36810099317336" r="3" fill="#30a14e">
    <title>2026-04-17: $319.38</title>
  </circle>
  <circle cx="420.0" cy="85.98858198174764" r="3" fill="#30a14e">
    <title>2026-04-18: $377.40</title>
  </circle>
  <circle cx="470.0" cy="50.92096398119817" r="3" fill="#30a14e">
    <title>2026-04-19: $556.22</title>
  </circle>
  <circle cx="520.0" cy="119.00666626391642" r="3" fill="#30a14e">
    <title>2026-04-20: $209.04</title>
  </circle>
  <circle cx="570.0" cy="138.81809535276324" r="3" fill="#30a14e">
    <title>2026-04-21: $108.01</title>
  </circle>
  <circle cx="620.0" cy="138.5992193171885" r="3" fill="#30a14e">
    <title>2026-04-22: $109.13</title>
  </circle>
  <circle cx="670.0" cy="132.1390154171263" r="3" fill="#30a14e">
    <title>2026-04-23: $142.07</title>
  </circle>
  <circle cx="720.0" cy="136.54445932599478" r="3" fill="#30a14e">
    <title>2026-04-24: $119.61</title>
  </circle>
  <polyline points="70.0,35.0 120.0,53.16730513895148 170.0,69.71135227204049 220.0,153.0216478115143 270.0,159.58117296386274 320.0,126.47181023038448 370.0,107.4300164516242 420.0,98.36603140879839 470.0,65.55102898595757 520.0,126.55057896194562 570.0,142.4348092468914 620.0,142.24106191596175 670.0,139.51136926603223 720.0,142.53543313494725" fill="none" stroke="#0969da" stroke-width="2" stroke-dasharray="6,3" />
  <circle cx="70.0" cy="35.0" r="3" fill="#0969da">
    <title>2026-04-11: 1.11B</title>
  </circle>
  <circle cx="120.0" cy="53.16730513895148" r="3" fill="#0969da">
    <title>2026-04-12: 950.0M</title>
  </circle>
  <circle cx="170.0" cy="69.71135227204049" r="3" fill="#0969da">
    <title>2026-04-13: 802.9M</title>
  </circle>
  <circle cx="220.0" cy="153.0216478115143" r="3" fill="#0969da">
    <title>2026-04-14: 62.1M</title>
  </circle>
  <circle cx="270.0" cy="159.58117296386274" r="3" fill="#0969da">
    <title>2026-04-15: 3.7M</title>
  </circle>
  <circle cx="320.0" cy="126.47181023038448" r="3" fill="#0969da">
    <title>2026-04-16: 298.1M</title>
  </circle>
  <circle cx="370.0" cy="107.4300164516242" r="3" fill="#0969da">
    <title>2026-04-17: 467.5M</title>
  </circle>
  <circle cx="420.0" cy="98.36603140879839" r="3" fill="#0969da">
    <title>2026-04-18: 548.1M</title>
  </circle>
  <circle cx="470.0" cy="65.55102898595757" r="3" fill="#0969da">
    <title>2026-04-19: 839.9M</title>
  </circle>
  <circle cx="520.0" cy="126.55057896194562" r="3" fill="#0969da">
    <title>2026-04-20: 297.4M</title>
  </circle>
  <circle cx="570.0" cy="142.4348092468914" r="3" fill="#0969da">
    <title>2026-04-21: 156.2M</title>
  </circle>
  <circle cx="620.0" cy="142.24106191596175" r="3" fill="#0969da">
    <title>2026-04-22: 157.9M</title>
  </circle>
  <circle cx="670.0" cy="139.51136926603223" r="3" fill="#0969da">
    <title>2026-04-23: 182.2M</title>
  </circle>
  <circle cx="720.0" cy="142.53543313494725" r="3" fill="#0969da">
    <title>2026-04-24: 155.3M</title>
  </circle>
  <line x1="560" y1="23" x2="580" y2="23" stroke="#30a14e" stroke-width="2" />
  <text x="584" y="27" font-family="Arial, sans-serif" font-size="10" fill="#30a14e">Cost ($)</text>
  <line x1="640" y1="23" x2="660" y2="23" stroke="#0969da" stroke-width="2" stroke-dasharray="6,3" />
  <text x="664" y="27" font-family="Arial, sans-serif" font-size="10" fill="#0969da">Tokens</text>
</svg>