<?xml version="1.0" encoding="UTF-8"?>
<svg xmlns="http://www.w3.org/2000/svg" width="800" height="200" viewBox="0 0 800 200">
  <rect width="800" height="200" fill="#ffffff" rx="6" />
  <text x="70" y="20" font-family="Arial, sans-serif" font-size="14" fill="#24292f" font-weight="bold">Last 14 Days — Cost &amp; Tokens</text>
  <line x1="70" y1="35.0" x2="720" y2="35.0" stroke="#ebedf0" stroke-width="1" />
  <line x1="70" y1="66.25" x2="720" y2="66.25" stroke="#ebedf0" stroke-width="1" />
  <line x1="70" y1="97.5" x2="720" y2="97.5" stroke="#ebedf0" stroke-width="1" />
  <line x1="70" y1="128.75" x2="720" y2="128.75" stroke="#ebedf0" stroke-width="1" />
  <line x1="70" y1="160.0" x2="720" y2="160.0" stroke="#ebedf0" stroke-width="1" />
  <text x="70.0" y="178" font-family="Arial, sans-serif" font-size="9" fill="#57606a" text-anchor="middle">03-31</text>
  <text x="170.0" y="178" font-family="Arial, sans-serif" font-size="9" fill="#57606a" text-anchor="middle">04-02</text>
  <text x="270.0" y="178" font-family="Arial, sans-serif" font-size="9" fill="#57606a" text-anchor="middle">04-04</text>
  <text x="370.0" y="178" font-family="Arial, sans-serif" font-size="9" fill="#57606a" text-anchor="middle">04-06</text>
  <text x="470.0" y="178" font-family="Arial, sans-serif" font-size="9" fill="#57606a" text-anchor="middle">04-08</text>
  <text x="570.0" y="178" font-family="Arial, sans-serif" font-size="9" fill="#57606a" text-anchor="middle">04-10</text>
  <text x="670.0" y="178" font-family="Arial, sans-serif" font-size="9" fill="#57606a" text-anchor="middle">04-12</text>
  <text x="64" y="39.0" font-family="Arial, sans-serif" font-size="9" fill="#30a14e" text-anchor="end">$1,008</text>
  <text x="64" y="70.25" font-family="Arial, sans-serif" font-size="9" fill="#30a14e" text-anchor="end">$756.06</text>
  <text x="64" y="101.5" font-family="Arial, sans-serif" font-size="9" fill="#30a14e" text-anchor="end">$504.04</text>
  <text x="64" y="132.75" font-family="Arial, sans-serif" font-size="9" fill="#30a14e" text-anchor="end">$252.02</text>
  <text x="64" y="164.0" font-family="Arial, sans-serif" font-size="9" fill="#30a14e" text-anchor="end">$0.00</text>
  <text x="726" y="39.0" font-family="Arial, sans-serif" font-size="9" fill="#0969da">1.59B</text>
  <text x="726" y="70.25" font-family="Arial, sans-serif" font-size="9" fill="#0969da">1.19B</text>
  <text x="726" y="101.5" font-family="Arial, sans-serif" font-size="9" fill="#0969da">793.1M</text>
  <text x="726" y="132.75" font-family="Arial, sans-serif" font-size="9" fill="#0969da">396.5M</text>
  <text x="726" y="164.0" font-family="Arial, sans-serif" font-size="9" fill="#0969da">0</text>
  <polyline points="70.0,146.32027524086203 120.0,148.1463282762634 170.0,128.02418334385564 220.0,125.49855618927214 270.0,153.44314673304194 320.0,151.5784219784706 370.0,66.89489679729552 420.0,101.75804180303557 470.0,91.77190494764014 520.0,35.0 570.0,75.75456866763069 620.0,120.48130604724895 670.0,124.41600386008524 720.0,139.03324599029963" fill="none" stroke="#30a14e" stroke-width="2" />
  <circle cx="70.0" cy="146.32027524086203" r="3" fill="#30a14e">
    <title>2026-03-31: $110.32</title>
  </circle>
  <circle cx="120.0" cy="148.1463282762634" r="3" fill="#30a14e">
    <title>2026-04-01: $95.60</title>
  </circle>
  <circle cx="170.0" cy="128.02418334385564" r="3" fill="#30a14e">
    <title>2026-04-02: $257.87</title>
  </circle>
  <circle cx="220.0" cy="125.49855618927214" r="3" fill="#30a14e">
    <title>2026-04-03: $278.24</title>
  </circle>
  <circle cx="270.0" cy="153.44314673304194" r="3" fill="#30a14e">
    <title>2026-04-04: $52.88</title>
  </circle>
  <circle cx="320.0" cy="151.5784219784706" r="3" fill="#30a14e">
    <title>2026-04-05: $67.92</title>
  </circle>
  <circle cx="370.0" cy="66.89489679729552" r="3" fill="#30a14e">
    <title>2026-04-06: $750.86</title>
  </circle>
  <circle cx="420.0" cy="101.75804180303557" r="3" fill="#30a14e">
    <title>2026-04-07: $469.70</title>
  </circle>
  <circle cx="470.0" cy="91.77190494764014" r="3" fill="#30a14e">
    <title>2026-04-08: $550.24</title>
  </circle>
  <circle cx="520.0" cy="35.0" r="3" fill="#30a14e">
    <title>2026-04-09: $1,008</title>
  </circle>
  <circle cx="570.0" cy="75.75456866763069" r="3" fill="#30a14e">
    <title>2026-04-10: $679.41</title>
  </circle>
  <circle cx="620.0" cy="120.48130604724895" r="3" fill="#30a14e">
    <title>2026-04-11: $318.70</title>
  </circle>
  <circle cx="670.0" cy="124.41600386008524" r="3" fill="#30a14e">
    <title>2026-04-12: $286.97</title>
  </circle>
  <circle cx="720.0" cy="139.03324599029963" r="3" fill="#30a14e">
    <title>2026-04-13: $169.09</title>
  </circle>
  <polyline points="70.0,146.95225820657885 120.0,149.09235702070083 170.0,128.15559660490243 220.0,127.5198827047193 270.0,153.37896493166494 320.0,153.83372145254592 370.0,107.32134318242774 420.0,103.44567915704974 470.0,91.84658150419297 520.0,35.0 570.0,98.99136811535399 620.0,116.20084009032612 670.0,122.56654171359634 720.0,142.21792609287945" fill="none" stroke="#0969da" stroke-width="2" stroke-dasharray="6,3" />
  <circle cx="70.0" cy="146.95225820657885" r="3" fill="#0969da">
    <title>2026-03-31: 165.6M</title>
  </circle>
  <circle cx="120.0" cy="149.09235702070083" r="3" fill="#0969da">
    <title>2026-04-01: 138.4M</title>
  </circle>
  <circle cx="170.0" cy="128.15559660490243" r="3" fill="#0969da">
    <title>2026-04-02: 404.1M</title>
  </circle>
  <circle cx="220.0" cy="127.5198827047193" r="3" fill="#0969da">
    <title>2026-04-03: 412.1M</title>
  </circle>
  <circle cx="270.0" cy="153.37896493166494" r="3" fill="#0969da">
    <title>2026-04-04: 84.0M</title>
  </circle>
  <circle cx="320.0" cy="153.83372145254592" r="3" fill="#0969da">
    <title>2026-04-05: 78.2M</title>
  </circle>
  <circle cx="370.0" cy="107.32134318242774" r="3" fill="#0969da">
    <title>2026-04-06: 668.4M</title>
  </circle>
  <circle cx="420.0" cy="103.44567915704974" r="3" fill="#0969da">
    <title>2026-04-07: 717.6M</title>
  </circle>
  <circle cx="470.0" cy="91.84658150419297" r="3" fill="#0969da">
    <title>2026-04-08: 864.8M</title>
  </circle>
  <circle cx="520.0" cy="35.0" r="3" fill="#0969da">
    <title>2026-04-09: 1.59B</title>
  </circle>
  <circle cx="570.0" cy="98.99136811535399" r="3" fill="#0969da">
    <title>2026-04-10: 774.1M</title>
  </circle>
  <circle cx="620.0" cy="116.20084009032612" r="3" fill="#0969da">
    <title>2026-04-11: 555.8M</title>
  </circle>
  <circle cx="670.0" cy="122.56654171359634" r="3" fill="#0969da">
    <title>2026-04-12: 475.0M</title>
  </circle>
  <circle cx="720.0" cy="142.21792609287945" r="3" fill="#0969da">
    <title>2026-04-13: 225.6M</title>
  </circle>
  <line x1="560" y1="23" x2="580" y2="23" stroke="#30a14e" stroke-width="2" />
  <text x="584" y="27" font-family="Arial, sans-serif" font-size="10" fill="#30a14e">Cost ($)</text>
  <line x1="640" y1="23" x2="660" y2="23" stroke="#0969da" stroke-width="2" stroke-dasharray="6,3" />
  <text x="664" y="27" font-family="Arial, sans-serif" font-size="10" fill="#0969da">Tokens</text>
</svg>