<?xml version="1.0" encoding="UTF-8"?>
<svg xmlns="http://www.w3.org/2000/svg" width="800" height="200" viewBox="0 0 800 200">
  <rect width="800" height="200" fill="#ffffff" rx="6" />
  <text x="70" y="20" font-family="Arial, sans-serif" font-size="14" fill="#24292f" font-weight="bold">Last 14 Days — Cost &amp; Tokens</text>
  <line x1="70" y1="35.0" x2="720" y2="35.0" stroke="#ebedf0" stroke-width="1" />
  <line x1="70" y1="66.25" x2="720" y2="66.25" stroke="#ebedf0" stroke-width="1" />
  <line x1="70" y1="97.5" x2="720" y2="97.5" stroke="#ebedf0" stroke-width="1" />
  <line x1="70" y1="128.75" x2="720" y2="128.75" stroke="#ebedf0" stroke-width="1" />
  <line x1="70" y1="160.0" x2="720" y2="160.0" stroke="#ebedf0" stroke-width="1" />
  <text x="70.0" y="178" font-family="Arial, sans-serif" font-size="9" fill="#57606a" text-anchor="middle">03-15</text>
  <text x="170.0" y="178" font-family="Arial, sans-serif" font-size="9" fill="#57606a" text-anchor="middle">03-17</text>
  <text x="270.0" y="178" font-family="Arial, sans-serif" font-size="9" fill="#57606a" text-anchor="middle">03-19</text>
  <text x="370.0" y="178" font-family="Arial, sans-serif" font-size="9" fill="#57606a" text-anchor="middle">03-21</text>
  <text x="470.0" y="178" font-family="Arial, sans-serif" font-size="9" fill="#57606a" text-anchor="middle">03-23</text>
  <text x="570.0" y="178" font-family="Arial, sans-serif" font-size="9" fill="#57606a" text-anchor="middle">03-25</text>
  <text x="670.0" y="178" font-family="Arial, sans-serif" font-size="9" fill="#57606a" text-anchor="middle">03-27</text>
  <text x="64" y="39.0" font-family="Arial, sans-serif" font-size="9" fill="#30a14e" text-anchor="end">$334.20</text>
  <text x="64" y="70.25" font-family="Arial, sans-serif" font-size="9" fill="#30a14e" text-anchor="end">$250.65</text>
  <text x="64" y="101.5" font-family="Arial, sans-serif" font-size="9" fill="#30a14e" text-anchor="end">$167.10</text>
  <text x="64" y="132.75" font-family="Arial, sans-serif" font-size="9" fill="#30a14e" text-anchor="end">$83.55</text>
  <text x="64" y="164.0" font-family="Arial, sans-serif" font-size="9" fill="#30a14e" text-anchor="end">$0.00</text>
  <text x="726" y="39.0" font-family="Arial, sans-serif" font-size="9" fill="#0969da">607.4M</text>
  <text x="726" y="70.25" font-family="Arial, sans-serif" font-size="9" fill="#0969da">455.5M</text>
  <text x="726" y="101.5" font-family="Arial, sans-serif" font-size="9" fill="#0969da">303.7M</text>
  <text x="726" y="132.75" font-family="Arial, sans-serif" font-size="9" fill="#0969da">151.8M</text>
  <text x="726" y="164.0" font-family="Arial, sans-serif" font-size="9" fill="#0969da">0</text>
  <polyline points="70.0,160.0 120.0,154.8265476411699 170.0,143.48164755550445 220.0,154.56754955704764 270.0,123.80176962763832 320.0,154.9661403202327 370.0,160.0 420.0,158.7954210368 470.0,35.0 520.0,136.85939526249848 570.0,115.10132609684248 620.0,131.1596416176712 670.0,112.69122729729543 720.0,146.1881902366499" fill="none" stroke="#30a14e" stroke-width="2" />
  <circle cx="70.0" cy="160.0" r="3" fill="#30a14e">
    <title>2026-03-15: $0.00</title>
  </circle>
  <circle cx="120.0" cy="154.8265476411699" r="3" fill="#30a14e">
    <title>2026-03-16: $13.83</title>
  </circle>
  <circle cx="170.0" cy="143.48164755550445" r="3" fill="#30a14e">
    <title>2026-03-17: $44.16</title>
  </circle>
  <circle cx="220.0" cy="154.56754955704764" r="3" fill="#30a14e">
    <title>2026-03-18: $14.52</title>
  </circle>
  <circle cx="270.0" cy="123.80176962763832" r="3" fill="#30a14e">
    <title>2026-03-19: $96.78</title>
  </circle>
  <circle cx="320.0" cy="154.9661403202327" r="3" fill="#30a14e">
    <title>2026-03-20: $13.46</title>
  </circle>
  <circle cx="370.0" cy="160.0" r="3" fill="#30a14e">
    <title>2026-03-21: $0.00</title>
  </circle>
  <circle cx="420.0" cy="158.7954210368" r="3" fill="#30a14e">
    <title>2026-03-22: $3.22</title>
  </circle>
  <circle cx="470.0" cy="35.0" r="3" fill="#30a14e">
    <title>2026-03-23: $334.20</title>
  </circle>
  <circle cx="520.0" cy="136.85939526249848" r="3" fill="#30a14e">
    <title>2026-03-24: $61.87</title>
  </circle>
  <circle cx="570.0" cy="115.10132609684248" r="3" fill="#30a14e">
    <title>2026-03-25: $120.04</title>
  </circle>
  <circle cx="620.0" cy="131.1596416176712" r="3" fill="#30a14e">
    <title>2026-03-26: $77.11</title>
  </circle>
  <circle cx="670.0" cy="112.69122729729543" r="3" fill="#30a14e">
    <title>2026-03-27: $126.48</title>
  </circle>
  <circle cx="720.0" cy="146.1881902366499" r="3" fill="#30a14e">
    <title>2026-03-28: $36.93</title>
  </circle>
  <polyline points="70.0,160.0 120.0,155.99883408513165 170.0,147.16945947307752 220.0,156.62967862277833 270.0,129.85927632561726 320.0,155.6620102050015 370.0,160.0 420.0,159.10506079721367 470.0,35.0 520.0,141.82015113582955 570.0,125.1283390919998 620.0,140.63750609684956 670.0,126.233309544234 720.0,149.23568987891122" fill="none" stroke="#0969da" stroke-width="2" stroke-dasharray="6,3" />
  <circle cx="70.0" cy="160.0" r="3" fill="#0969da">
    <title>2026-03-15: 0</title>
  </circle>
  <circle cx="120.0" cy="155.99883408513165" r="3" fill="#0969da">
    <title>2026-03-16: 19.4M</title>
  </circle>
  <circle cx="170.0" cy="147.16945947307752" r="3" fill="#0969da">
    <title>2026-03-17: 62.3M</title>
  </circle>
  <circle cx="220.0" cy="156.62967862277833" r="3" fill="#0969da">
    <title>2026-03-18: 16.4M</title>
  </circle>
  <circle cx="270.0" cy="129.85927632561726" r="3" fill="#0969da">
    <title>2026-03-19: 146.5M</title>
  </circle>
  <circle cx="320.0" cy="155.6620102050015" r="3" fill="#0969da">
    <title>2026-03-20: 21.1M</title>
  </circle>
  <circle cx="370.0" cy="160.0" r="3" fill="#0969da">
    <title>2026-03-21: 0</title>
  </circle>
  <circle cx="420.0" cy="159.10506079721367" r="3" fill="#0969da">
    <title>2026-03-22: 4.3M</title>
  </circle>
  <circle cx="470.0" cy="35.0" r="3" fill="#0969da">
    <title>2026-03-23: 607.4M</title>
  </circle>
  <circle cx="520.0" cy="141.82015113582955" r="3" fill="#0969da">
    <title>2026-03-24: 88.3M</title>
  </circle>
  <circle cx="570.0" cy="125.1283390919998" r="3" fill="#0969da">
    <title>2026-03-25: 169.4M</title>
  </circle>
  <circle cx="620.0" cy="140.63750609684956" r="3" fill="#0969da">
    <title>2026-03-26: 94.1M</title>
  </circle>
  <circle cx="670.0" cy="126.233309544234" r="3" fill="#0969da">
    <title>2026-03-27: 164.1M</title>
  </circle>
  <circle cx="720.0" cy="149.23568987891122" r="3" fill="#0969da">
    <title>2026-03-28: 52.3M</title>
  </circle>
  <line x1="560" y1="23" x2="580" y2="23" stroke="#30a14e" stroke-width="2" />
  <text x="584" y="27" font-family="Arial, sans-serif" font-size="10" fill="#30a14e">Cost ($)</text>
  <line x1="640" y1="23" x2="660" y2="23" stroke="#0969da" stroke-width="2" stroke-dasharray="6,3" />
  <text x="664" y="27" font-family="Arial, sans-serif" font-size="10" fill="#0969da">Tokens</text>
</svg>