<?xml version="1.0" encoding="UTF-8"?>
<svg xmlns="http://www.w3.org/2000/svg" width="800" height="200" viewBox="0 0 800 200">
  <rect width="800" height="200" fill="#ffffff" rx="6" />
  <text x="70" y="20" font-family="Arial, sans-serif" font-size="14" fill="#24292f" font-weight="bold">Last 14 Days — Cost &amp; Tokens</text>
  <line x1="70" y1="35.0" x2="720" y2="35.0" stroke="#ebedf0" stroke-width="1" />
  <line x1="70" y1="66.25" x2="720" y2="66.25" stroke="#ebedf0" stroke-width="1" />
  <line x1="70" y1="97.5" x2="720" y2="97.5" stroke="#ebedf0" stroke-width="1" />
  <line x1="70" y1="128.75" x2="720" y2="128.75" stroke="#ebedf0" stroke-width="1" />
  <line x1="70" y1="160.0" x2="720" y2="160.0" stroke="#ebedf0" stroke-width="1" />
  <text x="70.0" y="178" font-family="Arial, sans-serif" font-size="9" fill="#57606a" text-anchor="middle">03-17</text>
  <text x="170.0" y="178" font-family="Arial, sans-serif" font-size="9" fill="#57606a" text-anchor="middle">03-19</text>
  <text x="270.0" y="178" font-family="Arial, sans-serif" font-size="9" fill="#57606a" text-anchor="middle">03-21</text>
  <text x="370.0" y="178" font-family="Arial, sans-serif" font-size="9" fill="#57606a" text-anchor="middle">03-23</text>
  <text x="470.0" y="178" font-family="Arial, sans-serif" font-size="9" fill="#57606a" text-anchor="middle">03-25</text>
  <text x="570.0" y="178" font-family="Arial, sans-serif" font-size="9" fill="#57606a" text-anchor="middle">03-27</text>
  <text x="670.0" y="178" font-family="Arial, sans-serif" font-size="9" fill="#57606a" text-anchor="middle">03-29</text>
  <text x="64" y="39.0" font-family="Arial, sans-serif" font-size="9" fill="#30a14e" text-anchor="end">$334.20</text>
  <text x="64" y="70.25" font-family="Arial, sans-serif" font-size="9" fill="#30a14e" text-anchor="end">$250.65</text>
  <text x="64" y="101.5" font-family="Arial, sans-serif" font-size="9" fill="#30a14e" text-anchor="end">$167.10</text>
  <text x="64" y="132.75" font-family="Arial, sans-serif" font-size="9" fill="#30a14e" text-anchor="end">$83.55</text>
  <text x="64" y="164.0" font-family="Arial, sans-serif" font-size="9" fill="#30a14e" text-anchor="end">$0.00</text>
  <text x="726" y="39.0" font-family="Arial, sans-serif" font-size="9" fill="#0969da">607.4M</text>
  <text x="726" y="70.25" font-family="Arial, sans-serif" font-size="9" fill="#0969da">455.5M</text>
  <text x="726" y="101.5" font-family="Arial, sans-serif" font-size="9" fill="#0969da">303.7M</text>
  <text x="726" y="132.75" font-family="Arial, sans-serif" font-size="9" fill="#0969da">151.8M</text>
  <text x="726" y="164.0" font-family="Arial, sans-serif" font-size="9" fill="#0969da">0</text>
  <polyline points="70.0,143.48164755550445 120.0,154.56754955704764 170.0,123.80176962763831 220.0,154.9661403202327 270.0,160.0 320.0,159.89248817781615 370.0,35.0 420.0,159.08768228748832 470.0,159.84199003298286 520.0,159.91609575293253 570.0,132.34783579211182 620.0,157.76757292894254 670.0,159.66964879690252 720.0,155.62476274408982" fill="none" stroke="#30a14e" stroke-width="2" />
  <circle cx="70.0" cy="143.48164755550445" r="3" fill="#30a14e">
    <title>2026-03-17: $44.16</title>
  </circle>
  <circle cx="120.0" cy="154.56754955704764" r="3" fill="#30a14e">
    <title>2026-03-18: $14.52</title>
  </circle>
  <circle cx="170.0" cy="123.80176962763831" r="3" fill="#30a14e">
    <title>2026-03-19: $96.78</title>
  </circle>
  <circle cx="220.0" cy="154.9661403202327" r="3" fill="#30a14e">
    <title>2026-03-20: $13.46</title>
  </circle>
  <circle cx="270.0" cy="160.0" r="3" fill="#30a14e">
    <title>2026-03-21: $0.00</title>
  </circle>
  <circle cx="320.0" cy="159.89248817781615" r="3" fill="#30a14e">
    <title>2026-03-22: $0.29</title>
  </circle>
  <circle cx="370.0" cy="35.0" r="3" fill="#30a14e">
    <title>2026-03-23: $334.20</title>
  </circle>
  <circle cx="420.0" cy="159.08768228748832" r="3" fill="#30a14e">
    <title>2026-03-24: $2.44</title>
  </circle>
  <circle cx="470.0" cy="159.84199003298286" r="3" fill="#30a14e">
    <title>2026-03-25: $0.42</title>
  </circle>
  <circle cx="520.0" cy="159.91609575293253" r="3" fill="#30a14e">
    <title>2026-03-26: $0.22</title>
  </circle>
  <circle cx="570.0" cy="132.34783579211182" r="3" fill="#30a14e">
    <title>2026-03-27: $73.93</title>
  </circle>
  <circle cx="620.0" cy="157.76757292894254" r="3" fill="#30a14e">
    <title>2026-03-28: $5.97</title>
  </circle>
  <circle cx="670.0" cy="159.66964879690252" r="3" fill="#30a14e">
    <title>2026-03-29: $0.88</title>
  </circle>
  <circle cx="720.0" cy="155.62476274408982" r="3" fill="#30a14e">
    <title>2026-03-30: $11.70</title>
  </circle>
  <polyline points="70.0,147.16945947307752 120.0,156.62967862277833 170.0,129.85927632561726 220.0,155.6620102050015 270.0,160.0 320.0,159.9567038660978 370.0,35.0 420.0,159.23961199564454 470.0,159.88357991045953 520.0,159.9707982476334 570.0,136.614512547139 620.0,158.50637753774996 670.0,159.9688084913335 720.0,157.4809814902595" fill="none" stroke="#0969da" stroke-width="2" stroke-dasharray="6,3" />
  <circle cx="70.0" cy="147.16945947307752" r="3" fill="#0969da">
    <title>2026-03-17: 62.3M</title>
  </circle>
  <circle cx="120.0" cy="156.62967862277833" r="3" fill="#0969da">
    <title>2026-03-18: 16.4M</title>
  </circle>
  <circle cx="170.0" cy="129.85927632561726" r="3" fill="#0969da">
    <title>2026-03-19: 146.5M</title>
  </circle>
  <circle cx="220.0" cy="155.6620102050015" r="3" fill="#0969da">
    <title>2026-03-20: 21.1M</title>
  </circle>
  <circle cx="270.0" cy="160.0" r="3" fill="#0969da">
    <title>2026-03-21: 0</title>
  </circle>
  <circle cx="320.0" cy="159.9567038660978" r="3" fill="#0969da">
    <title>2026-03-22: 210.4K</title>
  </circle>
  <circle cx="370.0" cy="35.0" r="3" fill="#0969da">
    <title>2026-03-23: 607.4M</title>
  </circle>
  <circle cx="420.0" cy="159.23961199564454" r="3" fill="#0969da">
    <title>2026-03-24: 3.7M</title>
  </circle>
  <circle cx="470.0" cy="159.88357991045953" r="3" fill="#0969da">
    <title>2026-03-25: 565.7K</title>
  </circle>
  <circle cx="520.0" cy="159.9707982476334" r="3" fill="#0969da">
    <title>2026-03-26: 141.9K</title>
  </circle>
  <circle cx="570.0" cy="136.614512547139" r="3" fill="#0969da">
    <title>2026-03-27: 113.6M</title>
  </circle>
  <circle cx="620.0" cy="158.50637753774996" r="3" fill="#0969da">
    <title>2026-03-28: 7.3M</title>
  </circle>
  <circle cx="670.0" cy="159.9688084913335" r="3" fill="#0969da">
    <title>2026-03-29: 151.6K</title>
  </circle>
  <circle cx="720.0" cy="157.4809814902595" r="3" fill="#0969da">
    <title>2026-03-30: 12.2M</title>
  </circle>
  <line x1="560" y1="23" x2="580" y2="23" stroke="#30a14e" stroke-width="2" />
  <text x="584" y="27" font-family="Arial, sans-serif" font-size="10" fill="#30a14e">Cost ($)</text>
  <line x1="640" y1="23" x2="660" y2="23" stroke="#0969da" stroke-width="2" stroke-dasharray="6,3" />
  <text x="664" y="27" font-family="Arial, sans-serif" font-size="10" fill="#0969da">Tokens</text>
</svg>