<?xml version="1.0" encoding="UTF-8"?>
<svg xmlns="http://www.w3.org/2000/svg" width="800" height="200" viewBox="0 0 800 200">
  <rect width="800" height="200" fill="#ffffff" rx="6" />
  <text x="70" y="20" font-family="Arial, sans-serif" font-size="14" fill="#24292f" font-weight="bold">Last 14 Days — Cost &amp; Tokens</text>
  <line x1="70" y1="35.0" x2="720" y2="35.0" stroke="#ebedf0" stroke-width="1" />
  <line x1="70" y1="66.25" x2="720" y2="66.25" stroke="#ebedf0" stroke-width="1" />
  <line x1="70" y1="97.5" x2="720" y2="97.5" stroke="#ebedf0" stroke-width="1" />
  <line x1="70" y1="128.75" x2="720" y2="128.75" stroke="#ebedf0" stroke-width="1" />
  <line x1="70" y1="160.0" x2="720" y2="160.0" stroke="#ebedf0" stroke-width="1" />
  <text x="70.0" y="178" font-family="Arial, sans-serif" font-size="9" fill="#57606a" text-anchor="middle">03-14</text>
  <text x="170.0" y="178" font-family="Arial, sans-serif" font-size="9" fill="#57606a" text-anchor="middle">03-16</text>
  <text x="270.0" y="178" font-family="Arial, sans-serif" font-size="9" fill="#57606a" text-anchor="middle">03-18</text>
  <text x="370.0" y="178" font-family="Arial, sans-serif" font-size="9" fill="#57606a" text-anchor="middle">03-20</text>
  <text x="470.0" y="178" font-family="Arial, sans-serif" font-size="9" fill="#57606a" text-anchor="middle">03-22</text>
  <text x="570.0" y="178" font-family="Arial, sans-serif" font-size="9" fill="#57606a" text-anchor="middle">03-24</text>
  <text x="670.0" y="178" font-family="Arial, sans-serif" font-size="9" fill="#57606a" text-anchor="middle">03-26</text>
  <text x="64" y="39.0" font-family="Arial, sans-serif" font-size="9" fill="#30a14e" text-anchor="end">$459.24</text>
  <text x="64" y="70.25" font-family="Arial, sans-serif" font-size="9" fill="#30a14e" text-anchor="end">$344.43</text>
  <text x="64" y="101.5" font-family="Arial, sans-serif" font-size="9" fill="#30a14e" text-anchor="end">$229.62</text>
  <text x="64" y="132.75" font-family="Arial, sans-serif" font-size="9" fill="#30a14e" text-anchor="end">$114.81</text>
  <text x="64" y="164.0" font-family="Arial, sans-serif" font-size="9" fill="#30a14e" text-anchor="end">$0.00</text>
  <text x="726" y="39.0" font-family="Arial, sans-serif" font-size="9" fill="#0969da">607.4M</text>
  <text x="726" y="70.25" font-family="Arial, sans-serif" font-size="9" fill="#0969da">455.5M</text>
  <text x="726" y="101.5" font-family="Arial, sans-serif" font-size="9" fill="#0969da">303.7M</text>
  <text x="726" y="132.75" font-family="Arial, sans-serif" font-size="9" fill="#0969da">151.8M</text>
  <text x="726" y="164.0" font-family="Arial, sans-serif" font-size="9" fill="#0969da">0</text>
  <polyline points="70.0,158.44250326278907 120.0,160.0 170.0,156.23521477630842 220.0,146.7847457175767 270.0,156.04673866936147 320.0,132.94452656061077 370.0,156.2879408983773 420.0,160.0 470.0,159.12341300027927 520.0,35.0 570.0,141.22319230946863 620.0,124.46425956111435 670.0,132.43628329306375 720.0,158.92191512605496" fill="none" stroke="#30a14e" stroke-width="2" />
  <circle cx="70.0" cy="158.44250326278907" r="3" fill="#30a14e">
    <title>2026-03-14: $5.72</title>
  </circle>
  <circle cx="120.0" cy="160.0" r="3" fill="#30a14e">
    <title>2026-03-15: $0.00</title>
  </circle>
  <circle cx="170.0" cy="156.23521477630842" r="3" fill="#30a14e">
    <title>2026-03-16: $13.83</title>
  </circle>
  <circle cx="220.0" cy="146.7847457175767" r="3" fill="#30a14e">
    <title>2026-03-17: $48.55</title>
  </circle>
  <circle cx="270.0" cy="156.04673866936147" r="3" fill="#30a14e">
    <title>2026-03-18: $14.52</title>
  </circle>
  <circle cx="320.0" cy="132.94452656061077" r="3" fill="#30a14e">
    <title>2026-03-19: $99.40</title>
  </circle>
  <circle cx="370.0" cy="156.2879408983773" r="3" fill="#30a14e">
    <title>2026-03-20: $13.64</title>
  </circle>
  <circle cx="420.0" cy="160.0" r="3" fill="#30a14e">
    <title>2026-03-21: $0.00</title>
  </circle>
  <circle cx="470.0" cy="159.12341300027927" r="3" fill="#30a14e">
    <title>2026-03-22: $3.22</title>
  </circle>
  <circle cx="520.0" cy="35.0" r="3" fill="#30a14e">
    <title>2026-03-23: $459.24</title>
  </circle>
  <circle cx="570.0" cy="141.22319230946863" r="3" fill="#30a14e">
    <title>2026-03-24: $68.99</title>
  </circle>
  <circle cx="620.0" cy="124.46425956111435" r="3" fill="#30a14e">
    <title>2026-03-25: $130.56</title>
  </circle>
  <circle cx="670.0" cy="132.43628329306375" r="3" fill="#30a14e">
    <title>2026-03-26: $101.27</title>
  </circle>
  <circle cx="720.0" cy="158.92191512605496" r="3" fill="#30a14e">
    <title>2026-03-27: $3.96</title>
  </circle>
  <polyline points="70.0,158.34786755775718 120.0,160.0 170.0,155.99883408513165 220.0,147.16945947307752 270.0,156.62967862277833 320.0,129.85927632561726 370.0,155.6620102050015 420.0,160.0 470.0,159.10506079721367 520.0,35.0 570.0,141.82015113582955 620.0,125.1283390919998 670.0,140.63750609684956 720.0,159.87121123295523" fill="none" stroke="#0969da" stroke-width="2" stroke-dasharray="6,3" />
  <circle cx="70.0" cy="158.34786755775718" r="3" fill="#0969da">
    <title>2026-03-14: 8.0M</title>
  </circle>
  <circle cx="120.0" cy="160.0" r="3" fill="#0969da">
    <title>2026-03-15: 0</title>
  </circle>
  <circle cx="170.0" cy="155.99883408513165" r="3" fill="#0969da">
    <title>2026-03-16: 19.4M</title>
  </circle>
  <circle cx="220.0" cy="147.16945947307752" r="3" fill="#0969da">
    <title>2026-03-17: 62.3M</title>
  </circle>
  <circle cx="270.0" cy="156.62967862277833" r="3" fill="#0969da">
    <title>2026-03-18: 16.4M</title>
  </circle>
  <circle cx="320.0" cy="129.85927632561726" r="3" fill="#0969da">
    <title>2026-03-19: 146.5M</title>
  </circle>
  <circle cx="370.0" cy="155.6620102050015" r="3" fill="#0969da">
    <title>2026-03-20: 21.1M</title>
  </circle>
  <circle cx="420.0" cy="160.0" r="3" fill="#0969da">
    <title>2026-03-21: 0</title>
  </circle>
  <circle cx="470.0" cy="159.10506079721367" r="3" fill="#0969da">
    <title>2026-03-22: 4.3M</title>
  </circle>
  <circle cx="520.0" cy="35.0" r="3" fill="#0969da">
    <title>2026-03-23: 607.4M</title>
  </circle>
  <circle cx="570.0" cy="141.82015113582955" r="3" fill="#0969da">
    <title>2026-03-24: 88.3M</title>
  </circle>
  <circle cx="620.0" cy="125.1283390919998" r="3" fill="#0969da">
    <title>2026-03-25: 169.4M</title>
  </circle>
  <circle cx="670.0" cy="140.63750609684956" r="3" fill="#0969da">
    <title>2026-03-26: 94.1M</title>
  </circle>
  <circle cx="720.0" cy="159.87121123295523" r="3" fill="#0969da">
    <title>2026-03-27: 625.8K</title>
  </circle>
  <line x1="560" y1="23" x2="580" y2="23" stroke="#30a14e" stroke-width="2" />
  <text x="584" y="27" font-family="Arial, sans-serif" font-size="10" fill="#30a14e">Cost ($)</text>
  <line x1="640" y1="23" x2="660" y2="23" stroke="#0969da" stroke-width="2" stroke-dasharray="6,3" />
  <text x="664" y="27" font-family="Arial, sans-serif" font-size="10" fill="#0969da">Tokens</text>
</svg>