<?xml version="1.0" encoding="UTF-8"?>
<svg xmlns="http://www.w3.org/2000/svg" width="800" height="200" viewBox="0 0 800 200">
  <rect width="800" height="200" fill="#ffffff" rx="6" />
  <text x="70" y="20" font-family="Arial, sans-serif" font-size="14" fill="#24292f" font-weight="bold">Last 14 Days — Cost &amp; Tokens</text>
  <line x1="70" y1="35.0" x2="720" y2="35.0" stroke="#ebedf0" stroke-width="1" />
  <line x1="70" y1="66.25" x2="720" y2="66.25" stroke="#ebedf0" stroke-width="1" />
  <line x1="70" y1="97.5" x2="720" y2="97.5" stroke="#ebedf0" stroke-width="1" />
  <line x1="70" y1="128.75" x2="720" y2="128.75" stroke="#ebedf0" stroke-width="1" />
  <line x1="70" y1="160.0" x2="720" y2="160.0" stroke="#ebedf0" stroke-width="1" />
  <text x="70.0" y="178" font-family="Arial, sans-serif" font-size="9" fill="#57606a" text-anchor="middle">03-20</text>
  <text x="170.0" y="178" font-family="Arial, sans-serif" font-size="9" fill="#57606a" text-anchor="middle">03-22</text>
  <text x="270.0" y="178" font-family="Arial, sans-serif" font-size="9" fill="#57606a" text-anchor="middle">03-24</text>
  <text x="370.0" y="178" font-family="Arial, sans-serif" font-size="9" fill="#57606a" text-anchor="middle">03-26</text>
  <text x="470.0" y="178" font-family="Arial, sans-serif" font-size="9" fill="#57606a" text-anchor="middle">03-28</text>
  <text x="570.0" y="178" font-family="Arial, sans-serif" font-size="9" fill="#57606a" text-anchor="middle">03-30</text>
  <text x="670.0" y="178" font-family="Arial, sans-serif" font-size="9" fill="#57606a" text-anchor="middle">04-01</text>
  <text x="64" y="39.0" font-family="Arial, sans-serif" font-size="9" fill="#30a14e" text-anchor="end">$1,003</text>
  <text x="64" y="70.25" font-family="Arial, sans-serif" font-size="9" fill="#30a14e" text-anchor="end">$751.94</text>
  <text x="64" y="101.5" font-family="Arial, sans-serif" font-size="9" fill="#30a14e" text-anchor="end">$501.30</text>
  <text x="64" y="132.75" font-family="Arial, sans-serif" font-size="9" fill="#30a14e" text-anchor="end">$250.65</text>
  <text x="64" y="164.0" font-family="Arial, sans-serif" font-size="9" fill="#30a14e" text-anchor="end">$0.00</text>
  <text x="726" y="39.0" font-family="Arial, sans-serif" font-size="9" fill="#0969da">1.82B</text>
  <text x="726" y="70.25" font-family="Arial, sans-serif" font-size="9" fill="#0969da">1.37B</text>
  <text x="726" y="101.5" font-family="Arial, sans-serif" font-size="9" fill="#0969da">911.0M</text>
  <text x="726" y="132.75" font-family="Arial, sans-serif" font-size="9" fill="#0969da">455.5M</text>
  <text x="726" y="164.0" font-family="Arial, sans-serif" font-size="9" fill="#0969da">0</text>
  <polyline points="70.0,154.9661403202327 120.0,160.0 170.0,158.7595837627387 220.0,35.0 270.0,136.5552893583279 320.0,115.04865610783679 370.0,131.1316735353154 420.0,103.47383922799938 470.0,143.82250219563633 520.0,159.88988293230085 570.0,135.36112943223168 620.0,153.12268856682647 670.0,154.04071401244502 720.0,152.4831416618625" fill="none" stroke="#30a14e" stroke-width="2" />
  <circle cx="70.0" cy="154.9661403202327" r="3" fill="#30a14e">
    <title>2026-03-20: $40.38</title>
  </circle>
  <circle cx="120.0" cy="160.0" r="3" fill="#30a14e">
    <title>2026-03-21: $0.00</title>
  </circle>
  <circle cx="170.0" cy="158.7595837627387" r="3" fill="#30a14e">
    <title>2026-03-22: $9.95</title>
  </circle>
  <circle cx="220.0" cy="35.0" r="3" fill="#30a14e">
    <title>2026-03-23: $1,003</title>
  </circle>
  <circle cx="270.0" cy="136.5552893583279" r="3" fill="#30a14e">
    <title>2026-03-24: $188.04</title>
  </circle>
  <circle cx="320.0" cy="115.04865610783679" r="3" fill="#30a14e">
    <title>2026-03-25: $360.54</title>
  </circle>
  <circle cx="370.0" cy="131.1316735353154" r="3" fill="#30a14e">
    <title>2026-03-26: $231.55</title>
  </circle>
  <circle cx="420.0" cy="103.47383922799938" r="3" fill="#30a14e">
    <title>2026-03-27: $453.38</title>
  </circle>
  <circle cx="470.0" cy="143.82250219563633" r="3" fill="#30a14e">
    <title>2026-03-28: $129.76</title>
  </circle>
  <circle cx="520.0" cy="159.88988293230085" r="3" fill="#30a14e">
    <title>2026-03-29: $0.88</title>
  </circle>
  <circle cx="570.0" cy="135.36112943223168" r="3" fill="#30a14e">
    <title>2026-03-30: $197.62</title>
  </circle>
  <circle cx="620.0" cy="153.12268856682647" r="3" fill="#30a14e">
    <title>2026-03-31: $55.16</title>
  </circle>
  <circle cx="670.0" cy="154.04071401244502" r="3" fill="#30a14e">
    <title>2026-04-01: $47.80</title>
  </circle>
  <circle cx="720.0" cy="152.4831416618625" r="3" fill="#30a14e">
    <title>2026-04-02: $60.29</title>
  </circle>
  <polyline points="70.0,155.6620102050015 120.0,160.0 170.0,159.0906287525796 220.0,35.0 270.0,141.56668846771106 320.0,125.0895323954863 370.0,140.62777217939404 420.0,118.43814705994698 470.0,147.40030948424166 520.0,159.9896028304445 570.0,143.91848533067989 620.0,154.32096776326256 670.0,155.25244620203196 720.0,153.17842073174742" fill="none" stroke="#0969da" stroke-width="2" stroke-dasharray="6,3" />
  <circle cx="70.0" cy="155.6620102050015" r="3" fill="#0969da">
    <title>2026-03-20: 63.2M</title>
  </circle>
  <circle cx="120.0" cy="160.0" r="3" fill="#0969da">
    <title>2026-03-21: 0</title>
  </circle>
  <circle cx="170.0" cy="159.0906287525796" r="3" fill="#0969da">
    <title>2026-03-22: 13.3M</title>
  </circle>
  <circle cx="220.0" cy="35.0" r="3" fill="#0969da">
    <title>2026-03-23: 1.82B</title>
  </circle>
  <circle cx="270.0" cy="141.56668846771106" r="3" fill="#0969da">
    <title>2026-03-24: 268.7M</title>
  </circle>
  <circle cx="320.0" cy="125.0895323954863" r="3" fill="#0969da">
    <title>2026-03-25: 508.9M</title>
  </circle>
  <circle cx="370.0" cy="140.62777217939404" r="3" fill="#0969da">
    <title>2026-03-26: 282.4M</title>
  </circle>
  <circle cx="420.0" cy="118.43814705994698" r="3" fill="#0969da">
    <title>2026-03-27: 605.8M</title>
  </circle>
  <circle cx="470.0" cy="147.40030948424166" r="3" fill="#0969da">
    <title>2026-03-28: 183.7M</title>
  </circle>
  <circle cx="520.0" cy="159.9896028304445" r="3" fill="#0969da">
    <title>2026-03-29: 151.6K</title>
  </circle>
  <circle cx="570.0" cy="143.91848533067989" r="3" fill="#0969da">
    <title>2026-03-30: 234.4M</title>
  </circle>
  <circle cx="620.0" cy="154.32096776326256" r="3" fill="#0969da">
    <title>2026-03-31: 82.8M</title>
  </circle>
  <circle cx="670.0" cy="155.25244620203196" r="3" fill="#0969da">
    <title>2026-04-01: 69.2M</title>
  </circle>
  <circle cx="720.0" cy="153.17842073174742" r="3" fill="#0969da">
    <title>2026-04-02: 99.4M</title>
  </circle>
  <line x1="560" y1="23" x2="580" y2="23" stroke="#30a14e" stroke-width="2" />
  <text x="584" y="27" font-family="Arial, sans-serif" font-size="10" fill="#30a14e">Cost ($)</text>
  <line x1="640" y1="23" x2="660" y2="23" stroke="#0969da" stroke-width="2" stroke-dasharray="6,3" />
  <text x="664" y="27" font-family="Arial, sans-serif" font-size="10" fill="#0969da">Tokens</text>
</svg>